<svg width="132" height="12" viewBox="0 0 132 12" fill="none" xmlns="http://www.w3.org/2000/svg">
<path d="M132 5.98146L122 0.207953L122 11.755L132 5.98146ZM3 6.98145C3.55228 6.98145 4 6.53373 4 5.98145C4 5.42916 3.55228 4.98145 3 4.98145L3 6.98145ZM9 4.98145C8.44771 4.98145 8 5.42916 8 5.98145C8 6.53373 8.44771 6.98145 9 6.98145L9 4.98145ZM15 6.98145C15.5523 6.98145 16 6.53373 16 5.98145C16 5.42916 15.5523 4.98145 15 4.98145L15 6.98145ZM21 4.98145C20.4477 4.98145 20 5.42916 20 5.98145C20 6.53373 20.4477 6.98145 21 6.98145L21 4.98145ZM27 6.98145C27.5523 6.98145 28 6.53373 28 5.98145C28 5.42916 27.5523 4.98145 27 4.98145L27 6.98145ZM33 4.98145C32.4477 4.98145 32 5.42916 32 5.98145C32 6.53373 32.4477 6.98145 33 6.98145L33 4.98145ZM39 6.98145C39.5523 6.98145 40 6.53373 40 5.98145C40 5.42916 39.5523 4.98145 39 4.98145L39 6.98145ZM45 4.98145C44.4477 4.98145 44 5.42916 44 5.98145C44 6.53373 44.4477 6.98145 45 6.98145L45 4.98145ZM51 6.98145C51.5523 6.98145 52 6.53373 52 5.98145C52 5.42917 51.5523 4.98145 51 4.98145L51 6.98145ZM57 4.98145C56.4477 4.98145 56 5.42917 56 5.98145C56 6.53373 56.4477 6.98145 57 6.98145L57 4.98145ZM63 6.98145C63.5523 6.98145 64 6.53374 64 5.98145C64 5.42917 63.5523 4.98145 63 4.98145L63 6.98145ZM69 4.98145C68.4477 4.98145 68 5.42917 68 5.98145C68 6.53374 68.4477 6.98145 69 6.98145L69 4.98145ZM75 6.98145C75.5523 6.98145 76 6.53374 76 5.98145C76 5.42917 75.5523 4.98145 75 4.98145L75 6.98145ZM81 4.98145C80.4477 4.98145 80 5.42917 80 5.98145C80 6.53374 80.4477 6.98145 81 6.98145L81 4.98145ZM87 6.98145C87.5523 6.98145 88 6.53374 88 5.98145C88 5.42917 87.5523 4.98145 87 4.98145L87 6.98145ZM93 4.98145C92.4477 4.98145 92 5.42917 92 5.98145C92 6.53374 92.4477 6.98145 93 6.98145L93 4.98145ZM99 6.98145C99.5523 6.98145 100 6.53374 100 5.98145C100 5.42917 99.5523 4.98145 99 4.98145L99 6.98145ZM105 4.98145C104.448 4.98145 104 5.42917 104 5.98145C104 6.53374 104.448 6.98145 105 6.98145L105 4.98145ZM111 6.98146C111.552 6.98146 112 6.53374 112 5.98146C112 5.42917 111.552 4.98146 111 4.98146L111 6.98146ZM117 4.98146C116.448 4.98146 116 5.42917 116 5.98146C116 6.53374 116.448 6.98146 117 6.98146L117 4.98146ZM123 6.98146C123.552 6.98146 124 6.53374 124 5.98146C124 5.42917 123.552 4.98146 123 4.98146L123 6.98146ZM129 4.98146C128.448 4.98146 128 5.42917 128 5.98146C128 6.53374 128.448 6.98146 129 6.98146L129 4.98146ZM-8.74228e-08 6.98145L3 6.98145L3 4.98145L8.74228e-08 4.98145L-8.74228e-08 6.98145ZM9 6.98145L15 6.98145L15 4.98145L9 4.98145L9 6.98145ZM21 6.98145L27 6.98145L27 4.98145L21 4.98145L21 6.98145ZM33 6.98145L39 6.98145L39 4.98145L33 4.98145L33 6.98145ZM45 6.98145L51 6.98145L51 4.98145L45 4.98145L45 6.98145ZM57 6.98145L63 6.98145L63 4.98145L57 4.98145L57 6.98145ZM69 6.98145L75 6.98145L75 4.98145L69 4.98145L69 6.98145ZM81 6.98145L87 6.98145L87 4.98145L81 4.98145L81 6.98145ZM93 6.98145L99 6.98145L99 4.98145L93 4.98145L93 6.98145ZM105 6.98145L111 6.98146L111 4.98146L105 4.98145L105 6.98145ZM117 6.98146L123 6.98146L123 4.98146L117 4.98146L117 6.98146Z" fill="#262626"/>
</svg>
