<svg width="12" height="7" viewBox="0 0 12 7" fill="none" xmlns="http://www.w3.org/2000/svg">
<path d="M5.575 6.55C5.44167 6.55 5.31667 6.52917 5.2 6.4875C5.08333 6.44583 4.975 6.375 4.875 6.275L0.275 1.675C0.0916667 1.49167 0 1.25833 0 0.975C0 0.691667 0.0916667 0.458333 0.275 0.275C0.458333 0.0916667 0.691667 0 0.975 0C1.25833 0 1.49167 0.0916667 1.675 0.275L5.575 4.175L9.475 0.275C9.65833 0.0916667 9.89167 0 10.175 0C10.4583 0 10.6917 0.0916667 10.875 0.275C11.0583 0.458333 11.15 0.691667 11.15 0.975C11.15 1.25833 11.0583 1.49167 10.875 1.675L6.275 6.275C6.175 6.375 6.06667 6.44583 5.95 6.4875C5.83333 6.52917 5.70833 6.55 5.575 6.55Z" fill="#525252"/>
</svg>
