<svg width="120" height="28" viewBox="0 0 120 28" fill="none" xmlns="http://www.w3.org/2000/svg">
<path d="M16.2035 27.0425C15.5568 27.0425 14.9983 26.8084 14.528 26.3401C14.0772 25.8913 13.8519 25.345 13.8519 24.7011V16.5059C13.8519 15.862 14.0772 15.3157 14.528 14.8669C14.9983 14.3986 15.5568 14.1645 16.2035 14.1645H22.847C23.0037 14.1645 23.1409 14.1059 23.2585 13.9889C23.3761 13.8718 23.4349 13.7352 23.4349 13.5791V13.5206C23.4349 13.3645 23.3761 13.2279 23.2585 13.1108C23.1409 12.9937 23.0037 12.9352 22.847 12.9352H16.2035C15.5568 12.9352 14.9983 12.7108 14.528 12.262C14.0772 11.7937 13.8519 11.2376 13.8519 10.5937V7.37422C13.8519 6.94495 13.9988 6.58398 14.2928 6.29129C14.6064 5.9791 14.9787 5.823 15.4098 5.823H15.645C16.0174 5.823 16.3309 5.94983 16.5857 6.20349C16.8404 6.45715 16.9678 6.76934 16.9678 7.14008C16.9678 7.21813 16.9972 7.29617 17.056 7.37422C17.1344 7.43276 17.2128 7.46203 17.2912 7.46203H25.8453C26.1785 7.46203 26.4626 7.5791 26.6978 7.81325C26.933 8.04739 27.0506 8.33032 27.0506 8.66203C27.0506 8.99373 26.933 9.27666 26.6978 9.51081C26.4626 9.74495 26.1785 9.86203 25.8453 9.86203H17.3206C17.2226 9.86203 17.1344 9.8913 17.056 9.94983C16.9972 10.0084 16.9678 10.0864 16.9678 10.184C16.9678 10.2815 16.9972 10.3693 17.056 10.4474C17.1344 10.5059 17.2226 10.5352 17.3206 10.5352H24.0816C24.7283 10.5352 25.277 10.7693 25.7278 11.2376C26.1981 11.6864 26.4333 12.2328 26.4333 12.8767V14.223C26.4333 14.8669 26.1981 15.423 25.7278 15.8913C25.277 16.3401 24.7283 16.5645 24.0816 16.5645H17.203C17.1442 16.5645 17.0854 16.5937 17.0266 16.6523C16.9874 16.6913 16.9678 16.7401 16.9678 16.7986C16.9678 16.8571 16.9874 16.9157 17.0266 16.9742C17.0854 17.0132 17.1442 17.0328 17.203 17.0328H26.0217C26.2961 17.0328 26.5312 17.1401 26.7272 17.3547C26.9428 17.5498 27.0506 17.784 27.0506 18.0571C27.0506 18.3498 26.9428 18.6035 26.7272 18.8181C26.5312 19.0132 26.2961 19.1108 26.0217 19.1108H17.203C17.1442 19.1108 17.0854 19.1401 17.0266 19.1986C16.9874 19.2376 16.9678 19.2864 16.9678 19.345C16.9678 19.4035 16.9874 19.462 17.0266 19.5206C17.0854 19.5596 17.1442 19.5791 17.203 19.5791H26.0217C26.2961 19.5791 26.5312 19.6864 26.7272 19.9011C26.9428 20.0962 27.0506 20.3303 27.0506 20.6035C27.0506 20.8962 26.9428 21.1498 26.7272 21.3645C26.5312 21.5596 26.2961 21.6571 26.0217 21.6571H17.203C17.1442 21.6571 17.0854 21.6864 17.0266 21.745C16.9874 21.784 16.9678 21.8328 16.9678 21.8913C16.9678 21.9498 16.9874 22.0084 17.0266 22.0669C17.0854 22.1059 17.1442 22.1254 17.203 22.1254H26.0217C26.2961 22.1254 26.5312 22.2328 26.7272 22.4474C26.9428 22.6425 27.0506 22.8767 27.0506 23.1498C27.0506 23.4425 26.9428 23.6962 26.7272 23.9108C26.5312 24.1059 26.2961 24.2035 26.0217 24.2035H17.203C17.0462 24.2035 16.9678 24.2718 16.9678 24.4084C16.9678 24.5645 17.0462 24.6425 17.203 24.6425H25.8453C26.1785 24.6425 26.4626 24.7596 26.6978 24.9937C26.933 25.2279 27.0506 25.5108 27.0506 25.8425C27.0506 26.1742 26.933 26.4571 26.6978 26.6913C26.4626 26.9254 26.1785 27.0425 25.8453 27.0425H16.2035ZM0.623779 14.2523C0.623779 13.862 0.760959 13.5401 1.03532 13.2864C1.30968 13.0132 1.63303 12.8767 2.00538 12.8767H2.5345C2.67168 12.8767 2.77947 12.8181 2.85786 12.7011C2.95584 12.584 2.98524 12.4571 2.94604 12.3206L2.5933 11.2084C2.47571 10.9157 2.22095 10.7108 1.82901 10.5937C1.55465 10.4962 1.32928 10.3303 1.1529 10.0962C0.976528 9.86203 0.888341 9.58886 0.888341 9.27666C0.888341 8.88642 1.02552 8.56447 1.29988 8.31081C1.57424 8.03764 1.8976 7.90105 2.26994 7.90105H5.18012C5.27811 7.90105 5.36629 7.86203 5.44468 7.78398C5.52307 7.70593 5.56227 7.61813 5.56227 7.52056V7.14008C5.56227 6.73032 5.69945 6.3791 5.97381 6.08642C6.26776 5.79373 6.63031 5.64739 7.06145 5.64739C7.47299 5.64739 7.82574 5.79373 8.1197 6.08642C8.41365 6.3791 8.56063 6.73032 8.56063 7.14008V7.52056C8.56063 7.61813 8.59003 7.70593 8.64882 7.78398C8.72721 7.86203 8.8154 7.90105 8.91338 7.90105H11.7354C12.1273 7.90105 12.4507 8.03764 12.7054 8.31081C12.9798 8.56447 13.117 8.88642 13.117 9.27666C13.117 9.58886 13.0288 9.86203 12.8524 10.0962C12.676 10.3303 12.4507 10.4962 12.1763 10.5937C11.7844 10.7108 11.5296 10.9157 11.412 11.2084L11.0593 12.3206L11.0299 12.4376C11.0299 12.5547 11.0691 12.662 11.1475 12.7596C11.2454 12.8376 11.3532 12.8767 11.4708 12.8767H11.9999C12.3919 12.8767 12.7152 13.0132 12.97 13.2864C13.2444 13.5401 13.3815 13.862 13.3815 14.2523C13.3815 14.623 13.2444 14.945 12.97 15.2181C12.7152 15.4913 12.3919 15.6279 11.9999 15.6279H2.00538C1.63303 15.6279 1.30968 15.4913 1.03532 15.2181C0.760959 14.945 0.623779 14.623 0.623779 14.2523ZM1.21169 4.74008C1.21169 4.05715 1.45666 3.47178 1.94659 2.98398C2.45611 2.47666 3.06363 2.223 3.76913 2.223H11.9705C12.0489 2.223 12.1077 2.19373 12.1469 2.1352C12.2057 2.07666 12.2351 2.00837 12.2351 1.93032C12.2351 1.54008 12.3723 1.21812 12.6466 0.964466C12.921 0.691295 13.2542 0.554709 13.6461 0.554709H14.087C14.479 0.554709 14.8023 0.691295 15.0571 0.964466C15.3315 1.21812 15.4686 1.54008 15.4686 1.93032C15.4686 2.12544 15.5666 2.223 15.7626 2.223H23.964C24.6499 2.223 25.2378 2.47666 25.7278 2.98398C26.2373 3.47178 26.492 4.05715 26.492 4.74008V5.70593C26.492 6.1352 26.3353 6.50593 26.0217 6.81812C25.7278 7.13032 25.3554 7.28642 24.9047 7.28642C24.4735 7.28642 24.1012 7.13032 23.7876 6.81812C23.4741 6.50593 23.3173 6.1352 23.3173 5.70593V5.50105C23.3173 5.40349 23.2781 5.32544 23.1997 5.2669C23.1409 5.18886 23.0625 5.14983 22.9646 5.14983H4.73919C4.6412 5.14983 4.55301 5.18886 4.47462 5.2669C4.41583 5.32544 4.38644 5.40349 4.38644 5.50105V5.70593C4.38644 6.1352 4.22966 6.50593 3.9161 6.81812C3.62215 7.13032 3.2498 7.28642 2.79907 7.28642C2.36793 7.28642 1.99558 7.13032 1.68203 6.81812C1.36847 6.50593 1.21169 6.1352 1.21169 5.70593V4.74008ZM1.35867 18.4084C1.35867 17.7645 1.58404 17.2181 2.03478 16.7693C2.48551 16.3011 3.04403 16.0669 3.71033 16.0669H10.3244C10.9711 16.0669 11.5198 16.3011 11.9705 16.7693C12.4409 17.2181 12.676 17.7645 12.676 18.4084V25.6962C12.676 26.1059 12.5291 26.4572 12.2351 26.7498C11.9411 27.0425 11.5884 27.1889 11.1769 27.1889C10.7457 27.1889 10.3832 27.0425 10.0892 26.7498C9.81485 26.4572 9.67767 26.1059 9.67767 25.6962C9.67767 25.5986 9.63848 25.5108 9.56009 25.4328C9.4817 25.3547 9.39351 25.3157 9.29553 25.3157H4.70979C4.6118 25.3157 4.52362 25.3547 4.44523 25.4328C4.38644 25.5108 4.35704 25.5986 4.35704 25.6962C4.35704 26.1059 4.21006 26.4572 3.9161 26.7498C3.62215 27.0425 3.2694 27.1889 2.85786 27.1889C2.42672 27.1889 2.06417 27.0425 1.77021 26.7498C1.49585 26.4572 1.35867 26.1059 1.35867 25.6962V18.4084ZM4.35704 22.3303C4.35704 22.4279 4.38644 22.5157 4.44523 22.5937C4.50402 22.6523 4.58241 22.6815 4.68039 22.6815H9.32492C9.42291 22.6815 9.5013 22.6523 9.56009 22.5937C9.63848 22.5157 9.67767 22.4279 9.67767 22.3303C9.67767 22.2523 9.63848 22.184 9.56009 22.1254C9.5013 22.0474 9.42291 22.0084 9.32492 22.0084H4.68039C4.60201 22.0084 4.52362 22.0376 4.44523 22.0962C4.38644 22.1547 4.35704 22.2328 4.35704 22.3303ZM4.35704 19.023C4.35704 19.1206 4.38644 19.2084 4.44523 19.2864C4.50402 19.345 4.58241 19.3742 4.68039 19.3742H9.32492C9.42291 19.3742 9.5013 19.345 9.56009 19.2864C9.63848 19.2084 9.67767 19.1206 9.67767 19.023C9.67767 18.945 9.63848 18.8767 9.56009 18.8181C9.5013 18.7401 9.42291 18.7011 9.32492 18.7011H4.68039C4.60201 18.7011 4.52362 18.7303 4.44523 18.7889C4.38644 18.8474 4.35704 18.9254 4.35704 19.023ZM5.73864 12.3206C5.77783 12.4767 5.86602 12.6132 6.0032 12.7303C6.15998 12.8279 6.32656 12.8767 6.50293 12.8767H7.50239C7.67876 12.8767 7.83554 12.8279 7.97272 12.7303C8.1295 12.6132 8.22748 12.4767 8.26667 12.3206L8.64882 11.2084L8.67822 11.0913C8.67822 10.9742 8.62922 10.8767 8.53124 10.7986C8.45285 10.7011 8.35486 10.6523 8.23728 10.6523H5.76804C5.63086 10.6523 5.51327 10.7108 5.41529 10.8279C5.3369 10.945 5.3173 11.0718 5.3565 11.2084L5.73864 12.3206Z" fill="#FAFAFA"/>
<path d="M51.0375 17.2962C51.547 17.2962 51.9684 17.4718 52.3015 17.823C52.6347 18.1742 52.8012 18.584 52.8012 19.0523C52.8012 19.5011 52.6445 19.8913 52.3309 20.223L50.6847 22.0669C50.626 22.1254 50.5966 22.1937 50.5966 22.2718C50.5966 22.3498 50.6162 22.4279 50.6554 22.5059C50.7141 22.5645 50.7827 22.6035 50.8611 22.623L55.5057 23.5889C55.8584 23.6669 56.1426 23.8523 56.3581 24.145C56.5933 24.4181 56.7109 24.7303 56.7109 25.0815C56.7109 25.5108 56.5639 25.8718 56.2699 26.1645C55.976 26.4571 55.6232 26.6035 55.2117 26.6035C55.0745 26.6035 54.9667 26.5937 54.8883 26.5742L48.5095 25.2279C48.4507 25.2084 48.3723 25.1986 48.2743 25.1986C47.9607 25.1986 47.7158 25.3157 47.5394 25.5498L46.246 26.9547C45.952 27.3059 45.5699 27.4815 45.0996 27.4815C44.7272 27.4815 44.3843 27.345 44.0707 27.0718C43.718 26.7596 43.5416 26.3693 43.5416 25.9011C43.5416 25.5303 43.6788 25.1889 43.9531 24.8767L44.1589 24.6425C44.1981 24.6035 44.2177 24.5547 44.2177 24.4962C44.2177 24.3791 44.1589 24.3108 44.0413 24.2913L41.6603 23.7645C41.3075 23.6864 41.0135 23.5108 40.7784 23.2376C40.5628 22.9645 40.455 22.6523 40.455 22.3011C40.455 21.8718 40.602 21.5108 40.896 21.2181C41.2095 20.9254 41.5721 20.7791 41.9836 20.7791C42.1208 20.7791 42.2286 20.7889 42.307 20.8084L46.2166 21.6279L46.393 21.6571C46.6869 21.6571 46.9515 21.5401 47.1867 21.3059L47.7158 20.7206C47.755 20.6815 47.7746 20.623 47.7746 20.545C47.7746 20.3693 47.6864 20.2815 47.51 20.2815H40.1317C39.7593 20.2815 39.4458 20.4376 39.191 20.7498L35.7517 24.9645C35.4577 25.3547 35.056 25.5498 34.5465 25.5498C34.1937 25.5498 33.8704 25.4328 33.5764 25.1986C33.3804 25.062 33.2335 24.8864 33.1355 24.6718C33.0375 24.4572 32.9885 24.2328 32.9885 23.9986C32.9885 23.6084 33.1061 23.2864 33.3413 23.0328L38.9852 16.0376C39.0636 15.9401 39.1028 15.8132 39.1028 15.6572C39.1028 15.4815 39.044 15.3254 38.9264 15.1889C38.3777 14.6035 38.1034 13.9303 38.1034 13.1693V11.062C38.1034 10.6328 38.2503 10.2718 38.5443 9.9791C38.8579 9.68642 39.2302 9.54008 39.6613 9.54008C40.0729 9.54008 40.4256 9.69617 40.7196 10.0084C41.0135 10.3011 41.1605 10.662 41.1605 11.0913V12.5254C41.1605 12.6815 41.2193 12.8181 41.3369 12.9352C41.4545 13.0523 41.5917 13.1108 41.7484 13.1108H43.8943C44.0315 13.1108 44.1393 13.0523 44.2177 12.9352C44.2961 12.8181 44.3157 12.6913 44.2765 12.5547L43.8355 11.4132C43.7571 11.2571 43.718 11.0718 43.718 10.8571C43.718 10.4669 43.8649 10.1254 44.1589 9.83276C44.4529 9.52056 44.8154 9.36447 45.2465 9.36447C45.5601 9.36447 45.8442 9.45227 46.099 9.62788C46.3734 9.80349 46.5693 10.0474 46.6869 10.3596L47.51 12.4962C47.51 12.4962 47.51 12.5059 47.51 12.5254C47.5296 12.5254 47.5394 12.5254 47.5394 12.5254C47.5786 12.7011 47.657 12.8474 47.7746 12.9645C47.9118 13.062 48.0587 13.1108 48.2155 13.1108H49.8323C50.2438 13.1108 50.5966 13.2571 50.8905 13.5498C51.1845 13.8425 51.3315 14.2035 51.3315 14.6328C51.3315 15.0425 51.1747 15.3937 50.8611 15.6864C50.5672 15.9596 50.2144 16.0962 49.8029 16.0962H43.5122C43.1398 16.0962 42.8263 16.2523 42.5715 16.5645L42.3364 16.8279C42.2972 16.8669 42.2776 16.9352 42.2776 17.0328C42.2776 17.2084 42.3657 17.2962 42.5421 17.2962H51.0375ZM32.0478 8.69129C32.0478 7.94983 32.3026 7.32544 32.8121 6.81812C33.3413 6.31081 33.9684 6.05715 34.6935 6.05715H36.222C36.3788 6.05715 36.4964 5.99861 36.5748 5.88154C36.6532 5.76447 36.663 5.63764 36.6042 5.50105L36.4278 5.00349C36.369 4.84739 36.271 4.73032 36.1339 4.65227C35.9967 4.55471 35.8497 4.51568 35.6929 4.5352L34.4877 4.59373C34.0566 4.61325 33.6842 4.48642 33.3707 4.21325C33.0571 3.92056 32.9003 3.55959 32.9003 3.13032C32.9003 2.72056 33.0375 2.36934 33.3119 2.07666C33.6058 1.78398 33.9488 1.62788 34.3407 1.60837L55.3587 0.525442C55.7898 0.486416 56.1622 0.613246 56.4757 0.90593C56.7893 1.19861 56.946 1.55959 56.946 1.98886C56.946 2.3791 56.8089 2.72056 56.5345 3.01325C56.2601 3.30593 55.9172 3.46203 55.5057 3.48154L55.3293 3.51081C55.0941 3.51081 54.9275 3.61812 54.8296 3.83276L53.9477 5.53032C53.9281 5.56934 53.9183 5.61812 53.9183 5.67666C53.9183 5.77422 53.9477 5.86203 54.0065 5.94008C54.0849 6.01812 54.173 6.05715 54.271 6.05715H54.7414C55.4861 6.05715 56.1132 6.31081 56.6227 6.81812C57.1322 7.32544 57.387 7.94983 57.387 8.69129V9.80349C57.387 10.2328 57.24 10.5937 56.946 10.8864C56.6521 11.1791 56.2895 11.3254 55.8584 11.3254C55.4273 11.3254 55.0647 11.1791 54.7708 10.8864C54.4768 10.5937 54.3298 10.2328 54.3298 9.80349V9.423C54.3298 9.32544 54.2906 9.23764 54.2122 9.15959C54.1339 9.08154 54.0457 9.04251 53.9477 9.04251H35.4871C35.3892 9.04251 35.301 9.08154 35.2226 9.15959C35.1442 9.23764 35.105 9.32544 35.105 9.423V9.80349C35.105 10.2328 34.958 10.5937 34.6641 10.8864C34.3701 11.1791 34.0076 11.3254 33.5764 11.3254C33.1453 11.3254 32.7827 11.1791 32.4888 10.8864C32.1948 10.5937 32.0478 10.2328 32.0478 9.80349V8.69129ZM34.6935 12.2913C34.8306 12.0571 35.007 11.8815 35.2226 11.7645C35.4577 11.6279 35.7027 11.5596 35.9575 11.5596C36.2318 11.5596 36.4768 11.6279 36.6924 11.7645C36.9275 11.9011 37.1137 12.0864 37.2509 12.3206C37.3881 12.5352 37.4567 12.7791 37.4567 13.0523C37.4567 13.3059 37.3881 13.5401 37.2509 13.7547L35.5753 16.623C35.4382 16.8571 35.252 17.0425 35.0168 17.1791C34.8012 17.2962 34.5661 17.3547 34.3113 17.3547C34.037 17.3547 33.792 17.2864 33.5764 17.1498C33.3413 17.0132 33.1551 16.8376 33.0179 16.623C32.9003 16.3889 32.8415 16.145 32.8415 15.8913C32.8415 15.6181 32.9101 15.3742 33.0473 15.1596L34.6935 12.2913ZM39.7495 5.50105C39.8279 5.67666 39.9357 5.81325 40.0729 5.91081C40.2297 6.00837 40.3962 6.05715 40.5726 6.05715H41.5721C41.7092 6.05715 41.817 5.99861 41.8954 5.88154C41.9738 5.76447 41.9836 5.63764 41.9248 5.50105L41.6603 4.76934C41.5819 4.61325 41.4643 4.48642 41.3075 4.38886C41.1703 4.29129 41.0233 4.25227 40.8666 4.27178L39.8965 4.30105C39.7593 4.32056 39.6515 4.38886 39.5732 4.50593C39.4948 4.623 39.4752 4.74983 39.5144 4.88642L39.7495 5.50105ZM45.0702 5.50105C45.1485 5.67666 45.2563 5.81325 45.3935 5.91081C45.5503 6.00837 45.7169 6.05715 45.8932 6.05715H49.8029C49.9792 6.05715 50.136 6.00837 50.2732 5.91081C50.43 5.81325 50.5574 5.68642 50.6554 5.53032L51.3315 4.21325C51.3511 4.17422 51.3609 4.12544 51.3609 4.0669C51.3609 3.96934 51.3217 3.89129 51.2433 3.83276C51.1845 3.75471 51.1061 3.71568 51.0081 3.71568L45.0996 4.03764C44.9624 4.03764 44.8546 4.10593 44.7762 4.24251C44.6978 4.35959 44.688 4.48642 44.7468 4.623L45.0702 5.50105ZM51.0375 11.8815C50.9787 11.7059 50.9493 11.5206 50.9493 11.3254C50.9493 10.9157 51.0865 10.5645 51.3609 10.2718C51.6352 9.95959 52.0076 9.80349 52.4779 9.80349C52.7914 9.80349 53.0756 9.89129 53.3304 10.0669C53.5851 10.2425 53.7713 10.4767 53.8889 10.7693L55.4175 14.7206C55.4763 14.8962 55.5057 15.0718 55.5057 15.2474C55.5057 15.6572 55.3685 16.0181 55.0941 16.3303C54.8198 16.623 54.4474 16.7693 53.9771 16.7693C53.6635 16.7693 53.3794 16.6815 53.1246 16.5059C52.8698 16.3303 52.6837 16.0962 52.5661 15.8035L51.0375 11.8815Z" fill="#FAFAFA"/>
<path d="M66.1469 26.5157C65.8726 26.3791 65.657 26.1742 65.5002 25.9011C65.3434 25.6474 65.265 25.3742 65.265 25.0815C65.265 24.8279 65.3238 24.584 65.4414 24.3498L69.9096 15.6572C69.9292 15.6181 69.939 15.5693 69.939 15.5108C69.939 15.4132 69.8998 15.3254 69.8214 15.2474C69.7626 15.1693 69.6842 15.1303 69.5862 15.1303H65.5002C65.0691 15.1303 64.6967 14.9742 64.3832 14.662C64.0696 14.3498 63.9128 13.9791 63.9128 13.5498C63.9128 13.1011 64.0696 12.7303 64.3832 12.4376C64.6967 12.1254 65.0691 11.9693 65.5002 11.9693H71.203C71.3794 11.9693 71.5361 11.9206 71.6733 11.823C71.8301 11.7254 71.9575 11.5986 72.0555 11.4425L74.9656 5.7352C74.9852 5.69617 74.995 5.64739 74.995 5.58886C74.995 5.49129 74.9558 5.40349 74.8775 5.32544C74.8187 5.24739 74.7403 5.20837 74.6423 5.20837H64.6183C64.1872 5.20837 63.8148 5.05227 63.5013 4.74008C63.1877 4.42788 63.031 4.05715 63.031 3.62788C63.031 3.19861 63.1877 2.82788 63.5013 2.51569C63.8148 2.20349 64.1872 2.04739 64.6183 2.04739H86.5476C86.9787 2.04739 87.3511 2.20349 87.6646 2.51569C87.9782 2.82788 88.1349 3.19861 88.1349 3.62788C88.1349 4.05715 87.9782 4.42788 87.6646 4.74008C87.3707 5.05227 86.9983 5.20837 86.5476 5.20837H79.4632C79.0713 5.20837 78.7773 5.38398 78.5813 5.7352L75.6711 11.4425C75.6515 11.4815 75.6417 11.5303 75.6417 11.5889C75.6417 11.6864 75.6711 11.7742 75.7299 11.8523C75.8083 11.9303 75.8965 11.9693 75.9945 11.9693H85.6951C86.1262 11.9693 86.4986 12.1254 86.8121 12.4376C87.1257 12.7498 87.2825 13.1206 87.2825 13.5498C87.2825 13.9791 87.1257 14.3498 86.8121 14.662C86.4986 14.9742 86.1262 15.1303 85.6951 15.1303H74.3777C74.2014 15.1303 74.0348 15.1791 73.878 15.2767C73.7408 15.3742 73.6232 15.5011 73.5252 15.6572L68.3222 25.8132C68.185 26.0864 67.9792 26.3011 67.7049 26.4571C67.4501 26.6132 67.1758 26.6913 66.8818 26.6913C66.6271 26.6913 66.3821 26.6328 66.1469 26.5157ZM77.5525 19.2279C77.2585 18.9352 77.1115 18.584 77.1115 18.1742C77.1115 17.7059 77.2977 17.3059 77.6701 16.9742C77.964 16.6815 78.3168 16.5352 78.7283 16.5352C79.2182 16.5352 79.6298 16.7206 79.9629 17.0913L86.43 24.2328C86.7043 24.5645 86.8415 24.9254 86.8415 25.3157C86.8415 25.8035 86.6652 26.2035 86.3124 26.5157C85.9793 26.7889 85.6167 26.9254 85.2248 26.9254C84.7544 26.9254 84.3527 26.7498 84.0195 26.3986L77.5525 19.2279Z" fill="#FAFAFA"/>
<path d="M100.158 21.2474C99.7463 21.2474 99.4033 21.1011 99.1289 20.8084C98.8546 20.5157 98.7174 20.1742 98.7174 19.784C98.7174 19.6084 98.7468 19.4328 98.8056 19.2572L99.5111 17.4132C99.5503 17.2962 99.5699 17.2084 99.5699 17.1498C99.5699 16.9157 99.4523 16.7108 99.2171 16.5352L96.5421 14.8084C96.5029 14.7889 96.4441 14.7791 96.3658 14.7791C96.209 14.7791 96.1208 14.8474 96.1012 14.984L95.9836 15.423C95.9052 15.7352 95.7288 15.9986 95.4545 16.2132C95.1997 16.4084 94.9058 16.5059 94.5726 16.5059C94.1415 16.5059 93.7887 16.3596 93.5144 16.0669C93.24 15.7742 93.1028 15.4328 93.1028 15.0425C93.1028 14.945 93.1224 14.8181 93.1616 14.662L96.5715 1.95959C96.6499 1.64739 96.8165 1.39373 97.0713 1.19861C97.3456 0.983977 97.6396 0.87666 97.9531 0.87666C98.3843 0.87666 98.7468 1.023 99.0408 1.31569C99.3347 1.60837 99.4817 1.95959 99.4817 2.36934C99.4817 2.44739 99.4621 2.56447 99.4229 2.72056L99.3053 3.13032V3.21812C99.3053 3.29617 99.3249 3.36447 99.3641 3.423C99.4229 3.46203 99.4915 3.48154 99.5699 3.48154H105.096C105.665 3.48154 106.145 3.68642 106.537 4.09617C106.929 4.48642 107.125 4.95471 107.125 5.50105C107.125 5.71569 107.076 5.94983 106.978 6.20349L101.539 20.3108C101.422 20.6035 101.236 20.8376 100.981 21.0132C100.726 21.1693 100.452 21.2474 100.158 21.2474ZM94.0729 22.5352C94.1513 22.1645 94.3276 21.8523 94.602 21.5986C94.896 21.345 95.2291 21.2181 95.6015 21.2181C96.0718 21.2181 96.4539 21.4035 96.7479 21.7742C97.0419 22.1254 97.1594 22.5352 97.1006 23.0035L96.6597 25.784C96.5813 26.1547 96.3951 26.4571 96.1012 26.6913C95.8268 26.945 95.5035 27.0718 95.1311 27.0718C94.6608 27.0718 94.2787 26.8864 93.9847 26.5157C93.6907 26.1645 93.5732 25.7645 93.6319 25.3157L94.0729 22.5352ZM97.1594 11.1206C97.1398 11.1791 97.13 11.2571 97.13 11.3547C97.13 11.6279 97.2476 11.8425 97.4828 11.9986L100.275 13.8132C100.373 13.8718 100.462 13.9011 100.54 13.9011C100.736 13.9011 100.883 13.7937 100.981 13.5791L101.128 13.1986C101.167 13.0815 101.187 12.9937 101.187 12.9352C101.187 12.8181 101.157 12.7011 101.098 12.584C101.04 12.4669 100.961 12.3791 100.863 12.3206L97.9237 10.4181C97.8061 10.3791 97.7278 10.3596 97.6886 10.3596C97.5906 10.3596 97.5024 10.3889 97.424 10.4474C97.3456 10.5059 97.2966 10.584 97.277 10.6815L97.1594 11.1206ZM98.2765 6.9352C98.2765 7.14983 98.3647 7.30593 98.541 7.40349L101.922 9.59861C102 9.63764 102.078 9.65715 102.157 9.65715C102.255 9.65715 102.343 9.62788 102.421 9.56934C102.519 9.51081 102.588 9.44251 102.627 9.36447L103.538 6.96447C103.558 6.92544 103.568 6.87666 103.568 6.81812C103.568 6.70105 103.529 6.60349 103.45 6.52544C103.372 6.44739 103.274 6.40837 103.156 6.40837H98.835C98.541 6.40837 98.3647 6.5352 98.3059 6.78886L98.2765 6.9352ZM100.716 22.9157C100.658 22.4669 100.775 22.0571 101.069 21.6864C101.363 21.3157 101.745 21.1303 102.216 21.1303C102.588 21.1303 102.911 21.2572 103.186 21.5108C103.48 21.7645 103.666 22.0767 103.744 22.4474L104.185 25.3157C104.205 25.3742 104.214 25.462 104.214 25.5791C104.214 25.9693 104.067 26.3108 103.773 26.6035C103.48 26.9157 103.127 27.0718 102.715 27.0718C102.343 27.0718 102.01 26.945 101.716 26.6913C101.422 26.4571 101.245 26.1547 101.187 25.784L100.716 22.9157ZM108.947 10.7986L108.977 10.6815C108.977 10.5645 108.937 10.4669 108.859 10.3889C108.781 10.2913 108.683 10.2425 108.565 10.2425H107.83C107.399 10.2425 107.027 10.0962 106.713 9.80349C106.419 9.49129 106.272 9.12056 106.272 8.69129C106.272 8.26203 106.419 7.90105 106.713 7.60837C107.027 7.29617 107.399 7.14008 107.83 7.14008H109.741C109.917 7.14008 110.074 7.0913 110.211 6.99373C110.368 6.89617 110.486 6.75959 110.564 6.58398L112.298 2.01812C112.416 1.74495 112.602 1.53032 112.857 1.37422C113.112 1.19861 113.386 1.11081 113.68 1.11081C114.111 1.11081 114.464 1.25715 114.738 1.54983C115.012 1.823 115.15 2.15471 115.15 2.54495C115.15 2.72056 115.12 2.89617 115.061 3.07178L113.709 6.58398C113.69 6.623 113.68 6.67178 113.68 6.73032C113.68 6.84739 113.719 6.94495 113.797 7.023C113.876 7.10105 113.974 7.14008 114.091 7.14008H118.442C118.873 7.14008 119.236 7.29617 119.53 7.60837C119.843 7.90105 120 8.26203 120 8.69129C120 9.12056 119.843 9.49129 119.53 9.80349C119.236 10.0962 118.873 10.2425 118.442 10.2425H112.886C112.71 10.2425 112.543 10.2913 112.386 10.3889C112.249 10.4864 112.151 10.623 112.092 10.7986L108.536 19.9889C108.418 20.2815 108.232 20.5157 107.977 20.6913C107.722 20.8474 107.448 20.9254 107.154 20.9254C106.742 20.9254 106.399 20.7791 106.125 20.4864C105.851 20.1937 105.714 19.8523 105.714 19.462C105.714 19.2864 105.743 19.1108 105.802 18.9352L108.947 10.7986ZM108.594 22.9157C108.536 22.4669 108.653 22.0571 108.947 21.6864C109.241 21.3157 109.623 21.1303 110.094 21.1303C110.486 21.1303 110.819 21.2572 111.093 21.5108C111.387 21.7645 111.563 22.0767 111.622 22.4474L112.092 25.3157C112.151 25.7645 112.034 26.1645 111.74 26.5157C111.446 26.8864 111.064 27.0718 110.593 27.0718C110.221 27.0718 109.888 26.945 109.594 26.6913C109.3 26.4571 109.124 26.1547 109.065 25.784L108.594 22.9157ZM112.533 14.1059C112.357 13.8328 112.269 13.5498 112.269 13.2571C112.269 12.7498 112.475 12.3498 112.886 12.0571C113.121 11.8815 113.396 11.7937 113.709 11.7937C114.238 11.7937 114.65 11.9986 114.944 12.4084L119.441 18.7889C119.618 19.0425 119.706 19.3254 119.706 19.6376C119.706 20.145 119.5 20.545 119.089 20.8376C118.854 21.0132 118.579 21.1011 118.266 21.1011C117.756 21.1011 117.354 20.8962 117.06 20.4864L112.533 14.1059ZM115.679 4.68154C115.483 4.42788 115.385 4.14495 115.385 3.83276C115.385 3.32544 115.591 2.92544 116.002 2.63276C116.276 2.45715 116.561 2.36934 116.855 2.36934C117.345 2.36934 117.736 2.56447 118.03 2.95471L118.824 4.03764C119 4.2913 119.089 4.58398 119.089 4.91568C119.089 5.40349 118.893 5.79373 118.501 6.08642C118.246 6.26203 117.962 6.34983 117.648 6.34983C117.413 6.34983 117.188 6.30105 116.972 6.20349C116.757 6.10593 116.58 5.95959 116.443 5.76447L115.679 4.68154ZM116.502 23.0035C116.443 22.5352 116.561 22.1254 116.855 21.7742C117.149 21.4035 117.531 21.2181 118.001 21.2181C118.373 21.2181 118.697 21.345 118.971 21.5986C119.265 21.8523 119.451 22.1645 119.53 22.5352L119.971 25.3157C120.029 25.7645 119.912 26.1645 119.618 26.5157C119.324 26.8864 118.942 27.0718 118.471 27.0718C118.099 27.0718 117.766 26.945 117.472 26.6913C117.198 26.4571 117.021 26.1547 116.943 25.784L116.502 23.0035Z" fill="#FAFAFA"/>
</svg>
