<svg width="24" height="24" viewBox="0 0 24 24" fill="none" xmlns="http://www.w3.org/2000/svg">
<path d="M7 19C6.71667 19 6.47917 18.9042 6.2875 18.7125C6.09583 18.5208 6 18.2833 6 18V16H19V7H21C21.2833 7 21.5208 7.09583 21.7125 7.2875C21.9042 7.47917 22 7.71667 22 8V20.575C22 21.025 21.7958 21.3375 21.3875 21.5125C20.9792 21.6875 20.6167 21.6167 20.3 21.3L18 19H7ZM6 14L3.7 16.3C3.38333 16.6167 3.02083 16.6875 2.6125 16.5125C2.20417 16.3375 2 16.025 2 15.575V4C2 3.71667 2.09583 3.47917 2.2875 3.2875C2.47917 3.09583 2.71667 3 3 3H16C16.2833 3 16.5208 3.09583 16.7125 3.2875C16.9042 3.47917 17 3.71667 17 4V13C17 13.2833 16.9042 13.5208 16.7125 13.7125C16.5208 13.9042 16.2833 14 16 14H6ZM15 12V5H4V12H15Z" fill="#262626"/>
</svg>
