<svg width="48" height="48" viewBox="0 0 48 48" fill="none" xmlns="http://www.w3.org/2000/svg">
<g clip-path="url(#clip0_5065_201)">
<path fill-rule="evenodd" clip-rule="evenodd" d="M19.1964 0.571528C8.73151 2.76972 -0.0602431 11.8312 -0.00018236 24.0599C0.028418 30.4315 2.25639 35.9569 6.66656 40.5191C12.1693 46.2133 18.8503 48.8402 26.8298 47.7626C27.4419 47.6797 27.9281 47.4596 28.38 47.0051C31.028 44.3476 33.68 41.6943 36.3321 39.0409C39.9789 35.3923 43.6257 31.7437 47.2619 28.0846C47.6109 27.733 47.8768 27.1499 47.9026 26.6582C47.9855 24.9974 48.0656 23.3224 47.9255 21.6701C47.5193 16.8621 45.6832 12.6058 42.6687 8.84975C42.3055 8.40097 41.8822 8.21803 41.3674 8.57248C40.9241 8.87834 40.9269 9.38715 41.3416 9.94456C41.4275 10.0589 41.5133 10.1704 41.6019 10.2847C44.8938 14.5325 46.4583 19.349 46.3439 24.7116C46.3109 26.3216 46.2833 26.3289 44.8611 26.7031L44.6736 26.7526C35.2326 29.2566 29.2494 35.2366 26.7698 44.684L26.7218 44.8665C26.3629 46.2356 26.3557 46.2633 24.8278 46.2962C19.3565 46.4134 14.4659 44.7954 10.1472 41.4281C2.37365 35.3681 -0.469228 24.1599 3.52338 15.1899C6.2347 9.1013 10.8508 5.04509 17.1086 2.9155C22.4826 1.08892 27.868 1.22898 33.0561 3.63013C34.2252 4.17154 35.3106 4.88974 36.3976 5.60899L36.3976 5.60901C36.9807 5.99481 37.5642 6.38091 38.1613 6.74018C38.4358 6.90597 38.8363 7.01745 39.1308 6.94885C39.3482 6.8974 39.6485 6.49435 39.6256 6.27996C39.5884 5.95123 39.3797 5.55676 39.1165 5.34809C33.2306 0.631556 26.5781 -0.980639 19.1964 0.571528ZM44.1845 28.9422C39.0851 33.9874 33.9828 39.0356 28.7832 44.1809C29.1493 38.3295 37.8896 29.5682 43.9958 28.7535L44.1845 28.9422ZM23.7865 26.3727L23.7853 26.375C23.5813 26.7704 23.3743 27.1719 23.1634 27.5817H23.1577C23.1053 27.4256 23.0333 27.2652 22.9603 27.1027C22.8021 26.7504 22.6394 26.3882 22.6629 26.0381C22.9461 21.7504 20.066 18.6689 16.5053 17.7685C16.2889 17.7138 16.0725 17.6598 15.8562 17.6058L15.856 17.6058C13.831 17.1002 11.8169 16.5973 9.93576 15.6417C9.18071 15.2587 8.6087 15.6589 8.59154 16.5079C8.57438 17.414 8.56294 18.3202 8.60012 19.2234C8.74884 22.9852 11.4201 26.4497 15.0838 27.2644C16.4204 27.561 17.8211 27.5824 19.216 27.6036C19.6359 27.61 20.0552 27.6164 20.4721 27.6303C21.067 27.6503 21.4159 27.819 21.7334 28.3278C22.9518 30.2916 23.3064 32.4297 23.1892 34.6937C23.1434 35.5712 23.4752 35.9943 24.0643 35.9771C24.6249 35.96 24.8995 35.5484 24.8995 34.7194C24.9004 34.2617 24.8963 33.8038 24.8922 33.3457V33.3457V33.3456C24.8832 32.3275 24.8741 31.3089 24.9195 30.2916C25.0053 28.3306 25.2656 26.3869 26.4496 24.7289C26.6327 24.4745 27.0502 24.2573 27.3677 24.243C27.9476 24.2146 28.5293 24.2188 29.111 24.2231H29.111H29.111C29.8172 24.2282 30.5233 24.2334 31.2259 24.1801C34.4062 23.9371 36.7829 22.3707 38.3903 19.6293C39.6372 17.4998 39.56 15.1529 39.4628 12.8175C39.437 12.1601 38.785 11.8857 38.1014 12.2258C36.188 13.1748 34.1689 13.7523 32.0839 14.1982C28.0312 15.0615 25.0082 18.403 25.4515 22.7909C25.4686 22.9452 25.4457 23.131 25.3771 23.2682C24.8605 24.2906 24.3347 25.3098 23.7866 26.3725L23.7865 26.3727ZM20.8226 24.3747L20.8226 24.3749C20.826 24.4233 20.8295 24.4727 20.8354 24.5231V24.5288C20.5127 24.3037 20.1964 24.0759 19.8824 23.8498L19.8823 23.8497C19.1635 23.3322 18.4566 22.8231 17.7122 22.3735C17.1005 22.003 16.4428 21.7066 15.7861 21.4106L15.7861 21.4106L15.7859 21.4105L15.7858 21.4105C15.5307 21.2955 15.2758 21.1806 15.0238 21.0615C14.4918 20.8099 14.0371 20.9014 13.7596 21.4474C13.5165 21.9276 13.7568 22.3907 14.406 22.6508C16.0991 23.3283 17.6607 24.2201 19.0564 25.3949C19.1895 25.5063 19.3201 25.6202 19.4872 25.766L19.4877 25.7664L19.4878 25.7665L19.514 25.7894C13.9884 26.8099 9.86712 22.8737 10.3562 17.7856C10.532 17.8429 10.7054 17.9015 10.8775 17.9596C11.2373 18.081 11.5913 18.2005 11.9492 18.303C12.5342 18.4705 13.121 18.6329 13.7078 18.7953C14.6328 19.0513 15.5579 19.3073 16.4767 19.5836C18.7618 20.2697 20.1947 21.7932 20.7867 24.1029C20.8094 24.1898 20.8159 24.2804 20.8226 24.3747ZM27.3567 21.124L27.8882 20.6784C29.467 19.3435 31.2259 18.3202 33.1593 17.5855C33.6655 17.394 34.0745 17.5026 34.3147 17.9657C34.5664 18.4459 34.3719 18.8576 33.92 19.1148C33.7021 19.2378 33.4685 19.331 33.2343 19.4244C33.1366 19.4633 33.0387 19.5024 32.9419 19.5436C31.3374 20.2211 29.9103 21.1644 28.526 22.4364C31.4232 22.7194 33.9429 22.2963 35.902 20.141C37.3864 18.5117 37.9899 16.5936 37.7754 14.4183C37.0724 14.6178 36.3749 14.8064 35.6833 14.9935C34.1548 15.407 32.6547 15.8127 31.1858 16.3106C28.9589 17.0649 27.6892 18.736 27.3567 21.124ZM9.72974 10.7108C9.79412 10.6086 9.8491 10.5108 9.9008 10.4188C10.0053 10.233 10.0963 10.0709 10.2245 9.94474C12.0921 8.10386 14.2429 6.6889 16.6825 5.71415C17.2316 5.49405 17.6835 5.55122 17.9323 6.1172C18.1926 6.70605 17.8637 7.08052 17.346 7.29205C15.0952 8.21249 13.1103 9.5274 11.3485 11.1996C11.1312 11.4054 10.6478 11.454 10.3275 11.3911C10.1794 11.3604 10.0611 11.1837 9.93172 10.9904L9.93171 10.9904C9.8686 10.8961 9.80286 10.798 9.72974 10.7108ZM20.4808 5.44831C20.5609 5.97141 20.9156 6.20867 21.6735 6.1858L21.6763 6.18866C21.7443 6.17831 21.828 6.16778 21.9231 6.15581C22.1956 6.1215 22.5613 6.07546 22.9176 5.98856C23.3723 5.87708 23.6355 5.49976 23.4667 5.07384C23.3494 4.78228 23.0005 4.43354 22.7174 4.39352C22.2281 4.32326 21.7002 4.42707 21.1987 4.52566L21.173 4.53073C20.7039 4.6222 20.4036 4.93949 20.4808 5.44831Z" fill="black"/>
</g>
<defs>
<clipPath id="clip0_5065_201">
<rect width="48" height="48" fill="white"/>
</clipPath>
</defs>
</svg>
