<svg width="40" height="40" viewBox="0 0 40 40" fill="none" xmlns="http://www.w3.org/2000/svg">
<g filter="url(#filter0_d_2311_1444)">
<rect x="4" width="32" height="32" rx="4" fill="#FAFAFA" fill-opacity="0.5" shape-rendering="crispEdges"/>
<path d="M20 24.675C19.7667 24.675 19.5292 24.6333 19.2875 24.55C19.0458 24.4667 18.8333 24.3333 18.65 24.15L16.925 22.575C15.1583 20.9583 13.5625 19.3542 12.1375 17.7625C10.7125 16.1708 10 14.4167 10 12.5C10 10.9333 10.525 9.625 11.575 8.575C12.625 7.525 13.9333 7 15.5 7C16.3833 7 17.2167 7.1875 18 7.5625C18.7833 7.9375 19.45 8.45 20 9.1C20.55 8.45 21.2167 7.9375 22 7.5625C22.7833 7.1875 23.6167 7 24.5 7C26.0667 7 27.375 7.525 28.425 8.575C29.475 9.625 30 10.9333 30 12.5C30 14.4167 29.2917 16.175 27.875 17.775C26.4583 19.375 24.85 20.9833 23.05 22.6L21.35 24.15C21.1667 24.3333 20.9542 24.4667 20.7125 24.55C20.4708 24.6333 20.2333 24.675 20 24.675Z" fill="#A3A3A3"/>
</g>
<defs>
<filter id="filter0_d_2311_1444" x="0" y="0" width="40" height="40" filterUnits="userSpaceOnUse" color-interpolation-filters="sRGB">
<feFlood flood-opacity="0" result="BackgroundImageFix"/>
<feColorMatrix in="SourceAlpha" type="matrix" values="0 0 0 0 0 0 0 0 0 0 0 0 0 0 0 0 0 0 127 0" result="hardAlpha"/>
<feOffset dy="4"/>
<feGaussianBlur stdDeviation="2"/>
<feComposite in2="hardAlpha" operator="out"/>
<feColorMatrix type="matrix" values="0 0 0 0 0 0 0 0 0 0 0 0 0 0 0 0 0 0 0.25 0"/>
<feBlend mode="normal" in2="BackgroundImageFix" result="effect1_dropShadow_2311_1444"/>
<feBlend mode="normal" in="SourceGraphic" in2="effect1_dropShadow_2311_1444" result="shape"/>
</filter>
</defs>
</svg>
