<svg width="48" height="48" viewBox="0 0 48 48" fill="none" xmlns="http://www.w3.org/2000/svg">
<g clip-path="url(#clip0_5065_240)">
<path fill-rule="evenodd" clip-rule="evenodd" d="M29.1561 38.969C26.652 40.0242 24.1193 40.4577 21.4896 40.3065C13.4634 39.8474 5.87683 33.7243 4.54626 25.3226C2.90446 14.9474 10.1426 5.5874 20.6302 4.47801C25.2472 3.98748 29.3988 5.1482 33.0907 7.94307C33.3591 8.14841 33.5904 8.52486 33.6389 8.85283C33.6732 9.06673 33.3905 9.48596 33.1735 9.54585C32.8851 9.62855 32.4825 9.52874 32.1998 9.37758C31.7006 9.11196 31.2129 8.81693 30.7255 8.52202C29.8471 7.99051 28.9693 7.45943 28.0254 7.10176C21.1042 4.48371 13.0408 7.10747 8.83778 13.2334C3.34418 21.2415 6.20519 32.324 14.891 36.7103C19.2396 38.9062 23.6911 39.2684 28.271 37.486C28.9077 37.2379 29.3246 36.9441 29.5473 36.1713C30.5638 32.6206 32.9194 30.3733 36.5085 29.4151C36.794 29.3381 37.131 29.0557 37.2423 28.7848C39.5237 23.215 38.9641 17.9276 35.6091 12.9311C35.5439 12.8349 35.4753 12.7414 35.4066 12.6475L35.4065 12.6474L35.4065 12.6474C35.3488 12.5687 35.291 12.4898 35.235 12.4092C34.9067 11.9414 34.9466 11.4908 35.4121 11.1657C35.8489 10.8577 36.3229 10.9547 36.597 11.3939C36.7734 11.6769 36.9542 11.9584 37.1351 12.2403C37.751 13.1994 38.3689 14.1617 38.8213 15.1955C40.78 19.6673 40.8143 24.2246 39.1325 28.7991C39.1011 28.8875 39.0697 28.9759 39.0154 29.1299C39.6198 29.2374 40.2077 29.3434 40.8595 29.4609L41.6338 29.6005C41.7335 29.2386 41.8437 28.8754 41.9546 28.5099C42.1995 27.703 42.4477 26.8851 42.5931 26.047C44.3891 15.7744 38.0703 5.52466 28.1025 2.56438C23.7025 1.2582 19.3367 1.65176 15.068 3.18039C9.11474 5.31361 5.09162 9.41466 3.03866 15.3723C0.000619955 24.1847 2.92159 34.7681 11.4675 39.796C16.0303 42.4797 20.9757 43.4237 26.2323 42.4968C26.909 42.377 27.3687 42.5995 27.4772 43.1128C27.5885 43.6347 27.2887 44.034 26.5977 44.1709C21.8694 45.1177 17.3009 44.5758 12.9665 42.4797C6.99325 39.5907 2.7617 35.0362 0.974278 28.6251C-1.39277 20.1407 0.543127 12.5175 6.89332 6.38878C13.2835 0.22581 21.0242 -1.45396 29.473 1.24394C35.6919 3.22887 40.0177 7.56662 42.6845 13.4758C45.1087 18.8431 45.3485 24.353 43.2784 29.9056C43.121 30.3281 43.3279 30.448 43.5598 30.5825L43.5599 30.5825C43.5972 30.6042 43.6352 30.6262 43.6724 30.65C45.8824 32.0674 47.3244 34.0409 47.8212 36.6247C48.8348 41.9064 45.4285 46.9657 40.3974 47.847C34.604 48.8594 29.7557 44.6671 29.2789 39.6877C29.2662 39.5536 29.2408 39.4219 29.2108 39.2661C29.1936 39.1766 29.1748 39.0793 29.1561 38.969ZM38.6328 46.2898C42.8216 46.2841 46.3193 42.8333 46.325 38.7009C46.3336 34.3033 43.0129 30.9494 38.6328 30.9295C34.2414 30.9095 30.8807 34.3061 30.9064 38.7323C30.9321 42.8675 34.4355 46.2955 38.63 46.2898H38.6328ZM30.5496 23.7771C31.4915 22.842 31.5318 21.5764 30.6392 20.1654C30.7981 19.9899 30.9583 19.8201 31.1166 19.6523C31.4416 19.3079 31.759 18.9716 32.0429 18.6094C33.5134 16.7386 33.3221 14.3173 31.6089 12.783C29.9129 11.2658 27.4002 11.3143 25.7184 12.9142C25.4483 13.1722 25.2027 13.4587 24.9656 13.7353L24.9656 13.7353L24.9654 13.7355C24.8592 13.8594 24.7548 13.9813 24.6505 14.0977C22.9773 13.1908 21.781 13.2222 20.8701 14.1234C19.9536 15.0303 19.9222 16.1768 20.8444 17.8936C20.7921 17.9346 20.7349 17.9761 20.6755 18.0192C20.5407 18.1171 20.3945 18.2232 20.2676 18.3499C19.3711 19.2402 18.4775 20.1335 17.5839 21.0267L17.583 21.0276L17.5827 21.0279C16.5102 22.1 15.4377 23.1721 14.36 24.2391C13.4892 25.1004 12.9638 26.1185 12.9923 27.342C13.0038 27.8781 12.8324 28.2204 12.4641 28.5655C11.8359 29.153 11.5647 29.903 11.6846 30.7586C11.8245 31.7567 12.3727 32.4783 13.3264 32.8234C14.36 33.197 15.2794 32.946 16.0961 32.213C16.3559 31.9792 16.7071 31.694 17.0183 31.694C18.386 31.694 19.511 31.2234 20.4675 30.2566C22.0323 28.6778 23.6098 27.1081 25.187 25.5387L25.187 25.5387C25.5812 25.1464 25.9754 24.7541 26.3694 24.3617C26.4929 24.2384 26.6218 24.1204 26.7469 24.0059C26.8039 23.9537 26.8602 23.9022 26.9148 23.8513C28.3396 24.7496 29.6102 24.7097 30.5496 23.7771ZM31.3234 16.2851C31.2291 14.8849 30.778 14.0778 29.8272 13.6414C28.8307 13.188 27.8656 13.3135 27.0319 14.0407C26.6699 14.3565 26.3343 14.7 25.9989 15.0433L25.9989 15.0433C25.8528 15.1928 25.7067 15.3423 25.5585 15.4895C24.6305 16.4163 24.4421 16.4192 23.4684 15.498C22.9431 15.0018 22.4948 14.9504 22.0979 15.344C21.7153 15.7262 21.7638 16.1939 22.2749 16.7072C24.1537 18.5923 26.0411 20.4746 27.9256 22.354C27.9508 22.3792 27.9765 22.4083 28.0027 22.438C28.0804 22.526 28.1621 22.6185 28.2454 22.6249C28.3084 22.6285 28.3738 22.6339 28.4402 22.6394C28.7407 22.6642 29.062 22.6907 29.2818 22.5622C29.6702 22.3369 29.6901 21.8806 29.4303 21.4956C29.3307 21.3463 29.2004 21.2178 29.0697 21.0889L29.0696 21.0889C29.0131 21.0331 28.9564 20.9772 28.9021 20.9195C28.3653 20.3434 28.3653 19.9698 28.9221 19.3937C29.0947 19.2165 29.2754 19.0457 29.456 18.875L29.456 18.875C29.8131 18.5374 30.17 18.2001 30.4639 17.8138C30.7669 17.4152 30.9904 16.957 31.1589 16.6114L31.1589 16.6113L31.159 16.6112C31.2208 16.4846 31.2751 16.3731 31.3234 16.2851ZM22.1607 25.8875C21.5789 25.8875 20.9947 25.8905 20.409 25.8934C18.9167 25.9009 17.4143 25.9085 15.9133 25.8675C15.1567 25.8476 14.774 26.2126 14.7997 26.8258C14.8511 28.0977 14.6113 29.1729 13.5463 30.0057C13.3949 30.1226 13.4749 30.7415 13.6433 31.0038C13.886 31.3831 14.3429 31.3803 14.7198 31.1065C14.9654 30.9268 15.1966 30.7072 15.3879 30.4705C15.8048 29.9515 16.3073 29.8745 16.9612 29.9059C17.538 29.9344 18.2918 29.8317 18.6858 29.4781C19.5621 28.6826 20.3694 27.8123 21.1856 26.9324L21.1856 26.9324C21.5077 26.5852 21.8311 26.2365 22.1607 25.8904V25.8875ZM18.8374 24.1505H18.8374H18.8375C20.2191 24.1272 21.5802 24.1042 22.9316 24.2077C24.1027 24.297 24.6734 23.6667 25.2307 23.0512C25.3501 22.9193 25.4689 22.7881 25.5928 22.6649L25.098 22.1636C24.0583 21.1105 23.0596 20.0989 22.0779 19.1085C21.3042 19.884 20.5274 20.6631 19.7419 21.4511L19.7336 21.4594L19.7331 21.4599C18.8459 22.3499 17.9474 23.2511 17.0297 24.1707H17.0326C17.6386 24.1707 18.2399 24.1605 18.8374 24.1505ZM37.4908 38.5813C37.2714 38.3735 37.0608 38.1766 36.8571 37.986C36.4512 37.6063 36.0723 37.2519 35.7035 36.8873C35.1096 36.3027 35.0439 35.8236 35.4694 35.4186C35.872 35.0336 36.3374 35.0992 36.8913 35.6553C37.2502 36.0175 37.6007 36.3882 37.9845 36.7942C38.1899 37.0115 38.4049 37.2389 38.6359 37.4805C38.8406 37.263 39.0375 37.0513 39.2298 36.8444C39.6276 36.4165 40.006 36.0095 40.3948 35.6154C40.9287 35.0764 41.4426 35.0193 41.811 35.4528C42.245 35.969 42.0366 36.4168 41.6083 36.8217L41.6071 36.8228C41.0221 37.3757 40.4371 37.9287 39.6866 38.6327C39.9174 38.8417 40.1417 39.0405 40.3599 39.2339C40.8356 39.6556 41.2825 40.0518 41.7053 40.4722C42.1964 40.9627 42.1393 41.553 41.6311 41.8639C41.1857 42.1377 40.8088 41.9865 40.4804 41.6529C40.0588 41.2257 39.64 40.7942 39.1868 40.3273C38.9985 40.1334 38.8044 39.9333 38.6016 39.725C38.4035 39.9335 38.2131 40.1362 38.0273 40.3341C37.6159 40.7722 37.2269 41.1865 36.8256 41.5873C36.3202 42.0921 35.8406 42.132 35.4579 41.747C35.0725 41.362 35.1182 40.8886 35.6236 40.3809C36.003 40.0019 36.3912 39.6318 36.8176 39.2253C37.0312 39.0216 37.2544 38.8088 37.4908 38.5813Z" fill="black"/>
</g>
<defs>
<clipPath id="clip0_5065_240">
<rect width="48" height="48" fill="white"/>
</clipPath>
</defs>
</svg>
