 <svg width="20" height="20" viewBox="0 0 20 20" fill="none" xmlns="http://www.w3.org/2000/svg">
    <path d="M9.99997 14.3958L6.54164 16.4791C6.38886 16.5763 6.22914 16.618 6.06247 16.6041C5.8958 16.5902 5.74997 16.5347 5.62497 16.4375C5.49997 16.3402 5.40275 16.2187 5.33331 16.0729C5.26386 15.927 5.24997 15.7638 5.29164 15.5833L6.2083 11.6458L3.14581 8.99996C3.00692 8.87496 2.92011 8.7326 2.88539 8.57288C2.85067 8.41315 2.86108 8.2569 2.91664 8.10413C2.97219 7.95135 3.05553 7.82635 3.16664 7.72913C3.27775 7.6319 3.43053 7.5694 3.62497 7.54163L7.66664 7.18746L9.22914 3.47913C9.29858 3.31246 9.40622 3.18746 9.55205 3.10413C9.69789 3.02079 9.84719 2.97913 9.99997 2.97913C10.1527 2.97913 10.3021 3.02079 10.4479 3.10413C10.5937 3.18746 10.7014 3.31246 10.7708 3.47913L12.3333 7.18746L16.375 7.54163C16.5694 7.5694 16.7222 7.6319 16.8333 7.72913C16.9444 7.82635 17.0277 7.95135 17.0833 8.10413C17.1389 8.2569 17.1493 8.41315 17.1146 8.57288C17.0798 8.7326 16.993 8.87496 16.8541 8.99996L13.7916 11.6458L14.7083 15.5833C14.75 15.7638 14.7361 15.927 14.6666 16.0729C14.5972 16.2187 14.5 16.3402 14.375 16.4375C14.25 16.5347 14.1041 16.5902 13.9375 16.6041C13.7708 16.618 13.6111 16.5763 13.4583 16.4791L9.99997 14.3958Z" fill="none" stroke="#F59E0B" stroke-width="2"/>
</svg>