<svg width="48" height="48" viewBox="0 0 48 48" fill="none" xmlns="http://www.w3.org/2000/svg">
<g clip-path="url(#clip0_5065_242)">
<path fill-rule="evenodd" clip-rule="evenodd" d="M14.7785 31.5856C18.8617 33.7809 19.1151 33.8552 24.5395 34.3897C24.5583 34.4481 24.5779 34.5075 24.5978 34.5679C24.6414 34.7 24.6864 34.8365 24.7274 34.9757C25.0093 35.9102 25.2913 36.8448 25.5733 37.7793C26.505 40.8668 27.4368 43.9547 28.3636 47.0442C28.506 47.5159 28.6768 48.0675 29.2349 47.9932C29.6022 47.9446 30.0265 47.593 30.2429 47.2586C31.2908 45.6493 32.2874 44.0057 33.2783 42.3563C33.4975 41.9904 33.694 41.8961 34.1268 42.0047C36.0773 42.4992 38.0335 42.9652 39.9982 43.3882C40.2887 43.4511 40.7499 43.3311 40.9265 43.1195C41.1002 42.9109 41.1144 42.4535 41.0233 42.1591C40.9183 41.8286 40.7402 41.5198 40.5623 41.2111C40.4893 41.0845 40.4164 40.9579 40.3484 40.8299C38.6058 37.5655 36.8603 34.2983 35.1149 31.0339C35.1111 31.0267 35.1073 31.0196 35.1035 31.0125C34.9605 30.7426 34.8474 30.529 35.1804 30.2449C38.8963 27.0949 40.7756 23.0187 41.0945 18.1936C41.365 14.106 40.3399 10.3785 37.8655 7.08557C37.4042 6.47385 36.9315 6.34808 36.4902 6.68252C36.0631 7.00553 36.0659 7.52006 36.5073 8.12605C38.8507 11.339 39.8046 14.9064 39.3518 18.8739C38.435 26.8805 31.2708 33.4693 22.7114 32.5289C13.2807 31.4912 7.53177 23.5132 9.13203 14.349C10.8177 4.69016 19.5565 0.934127 26.6808 2.04036C29.1096 2.41482 31.2993 3.39813 33.2754 4.86453C33.8221 5.27044 34.3489 5.23042 34.6507 4.79879C34.9611 4.35286 34.833 3.88979 34.2549 3.48103C33.8307 3.17803 33.395 2.89218 32.948 2.62349C29.9752 0.83408 26.7719 -0.194972 23.2895 0.0308481C17.5804 0.399592 13.1725 3.15802 10.029 7.87165C6.92527 12.531 6.12229 17.5905 8.01299 22.9587C9.00389 25.78 10.7408 28.1068 12.939 30.0906C13.3121 30.4279 13.3804 30.6766 13.1127 31.1025C12.8713 31.4895 12.6617 31.8954 12.4519 32.3015C12.3673 32.4653 12.2826 32.6292 12.1959 32.7918C11.7739 33.5822 11.3519 34.3727 10.9298 35.1634C9.7201 37.4295 8.50997 39.6965 7.29828 41.9618C7.08188 42.3649 6.91388 42.8222 7.31537 43.1252C7.58587 43.3282 8.0557 43.4225 8.3917 43.3511C10.3109 42.948 12.2243 42.4964 14.1264 42.0162C14.5564 41.9075 14.7529 41.9933 14.9721 42.3592C16.0029 44.0657 17.0422 45.7665 18.1242 47.4415C18.3008 47.716 18.7421 48.0275 19.0041 47.9847C19.3116 47.9332 19.7046 47.5587 19.8042 47.2415C20.5091 45.0035 21.185 42.7563 21.8609 40.5088C22.1079 39.6877 22.3548 38.8665 22.6032 38.0457C22.7769 37.4769 22.626 37.0224 22.0537 36.8452C21.4557 36.6594 21.1254 37.0281 20.9603 37.5712C20.7846 38.1487 20.6099 38.7271 20.4351 39.3059C20.3009 39.7499 20.1667 40.1941 20.032 40.6384C19.5963 42.0848 19.1578 43.5283 18.6766 45.109C18.3887 44.6424 18.1089 44.1896 17.8347 43.7458C17.279 42.8466 16.7465 41.9846 16.2164 41.1215C15.4989 39.9552 15.422 39.9266 14.1036 40.2496C12.9655 40.5275 11.8274 40.7984 10.6223 41.0853C10.2777 41.1673 9.92763 41.2507 9.57053 41.3358C10.3566 39.8636 11.1293 38.4174 11.8944 36.9856C12.8643 35.1705 13.8218 33.3785 14.7785 31.5856ZM30.3371 43.8806C30.0859 44.2833 29.8306 44.6926 29.5709 45.1119L29.5681 45.1176C28.8698 42.7935 28.1861 40.5247 27.5022 38.2552C27.0985 36.9156 26.6947 35.5757 26.2878 34.2239C28.8676 33.8295 31.231 32.9919 33.452 31.5484C34.0659 32.6981 34.677 33.8421 35.2891 34.9878C36.4057 37.078 37.5254 39.1742 38.6713 41.3215C38.1623 41.2025 37.6651 41.0881 37.1766 40.9757C35.9872 40.702 34.8491 40.4402 33.7168 40.1524C33.0334 39.9781 32.6034 40.1581 32.2447 40.767C31.6354 41.7995 31.0006 42.8171 30.3371 43.8806ZM28.9269 13.5178C28.7024 13.5188 28.4696 13.5198 28.2239 13.5198C28.2239 13.1262 28.2249 12.7456 28.2259 12.3735C28.2278 11.6538 28.2296 10.9661 28.2239 10.2783C28.2125 8.90052 27.6744 7.77428 26.5354 6.99964C25.5502 6.33361 24.4653 6.00775 23.3206 6.56229C22.2101 7.09968 22.0735 8.1173 22.1048 9.22639C22.1347 10.3395 22.1256 11.4545 22.1165 12.5683C22.1143 12.8332 22.1121 13.0979 22.1105 13.3626C22.1048 14.3316 21.746 14.6746 20.7722 14.6889C20.7073 14.6898 20.6423 14.6913 20.5775 14.6928C19.9657 14.7072 19.3654 14.7214 18.9071 14.1373C18.7704 13.9629 18.4401 13.8857 18.1924 13.8743C17.4863 13.8371 16.7687 13.8 16.0682 13.8743C15.1571 13.9743 14.5904 14.6489 14.5876 15.5836C14.5733 18.6251 14.5705 21.6693 14.5876 24.7108C14.5904 25.6826 15.2653 26.3715 16.2248 26.4258C16.837 26.4601 17.4606 26.4859 18.0671 26.4087C18.3155 26.3766 18.5515 26.2558 18.7881 26.1347C18.9096 26.0726 19.0312 26.0103 19.1549 25.9599C19.2474 25.9219 19.3401 25.8769 19.4331 25.8318C19.6692 25.7171 19.9067 25.6018 20.1458 25.5997C21.877 25.585 23.6083 25.5853 25.3395 25.5855C26.6379 25.5857 27.9363 25.5859 29.2348 25.5797C31.2194 25.5712 32.5093 24.4135 32.8254 22.4411C33.0059 21.3105 33.1983 20.1814 33.3907 19.0516C33.4654 18.6133 33.5401 18.1748 33.6141 17.7361C34.0042 15.435 32.4695 13.5598 30.1573 13.5198C29.7566 13.5142 29.3571 13.5159 28.9269 13.5178ZM19.6959 17.2644V16.4069L19.7016 16.4012C19.8653 16.4012 20.0197 16.4022 20.1682 16.4032C20.4484 16.4051 20.7071 16.4068 20.9658 16.4012C22.6743 16.364 23.7933 15.2492 23.8161 13.517C23.8282 12.5774 23.8256 11.6367 23.823 10.6963C23.8213 10.0918 23.8196 9.48735 23.8218 8.88337C23.8246 8.10015 24.0638 7.91435 24.8241 8.07442C25.8036 8.28024 26.4813 9.14064 26.5012 10.264C26.5155 11.0518 26.513 11.8385 26.5106 12.6255C26.5091 13.0978 26.5076 13.5702 26.5098 14.0429C26.5126 14.9776 26.766 15.2292 27.6858 15.2349C28.0172 15.2372 28.3487 15.2358 28.6801 15.2345C29.1773 15.2324 29.6744 15.2303 30.1716 15.2406C31.3533 15.2664 32.0936 16.0581 31.9341 17.2301C31.6921 18.9938 31.3903 20.7489 31.0714 22.5012C30.9148 23.3644 30.2314 23.8561 29.2462 23.8618C27.7138 23.8722 26.1814 23.8705 24.6491 23.8688C24.0743 23.8681 23.4996 23.8675 22.9249 23.8675C22.5357 23.8684 22.1466 23.8674 21.7575 23.8664C20.8681 23.8642 19.9787 23.8619 19.0894 23.8818C18.8018 23.8875 18.3604 23.9647 18.2636 24.1505C17.9167 24.8221 17.4231 24.7722 16.9087 24.7202C16.7137 24.7005 16.5157 24.6805 16.3217 24.6993V15.5551C16.4137 15.5551 16.5043 15.5579 16.5936 15.5608C16.7862 15.5669 16.9731 15.5728 17.156 15.5493C17.7824 15.4693 18.0244 15.6665 18.0016 16.3554C17.9504 17.9219 17.9561 19.494 18.0102 21.0605C18.0216 21.4006 18.2437 21.8637 18.517 22.0381C19.078 22.3982 19.6788 21.9037 19.6902 21.1148C19.7024 20.198 19.7 19.2813 19.6977 18.3645C19.6968 17.9978 19.6959 17.6311 19.6959 17.2644Z" fill="black"/>
</g>
<defs>
<clipPath id="clip0_5065_242">
<rect width="48" height="48" fill="white"/>
</clipPath>
</defs>
</svg>
