<svg width="40" height="40" viewBox="0 0 40 40" fill="none" xmlns="http://www.w3.org/2000/svg">
<rect width="40" height="40" rx="4" fill="#E5E5E5"/>
<path d="M19 14H17C16.7167 14 16.4792 13.9042 16.2875 13.7125C16.0958 13.5208 16 13.2833 16 13C16 12.7167 16.0958 12.4792 16.2875 12.2875C16.4792 12.0958 16.7167 12 17 12H19V10C19 9.71667 19.0958 9.47917 19.2875 9.2875C19.4792 9.09583 19.7167 9 20 9C20.2833 9 20.5208 9.09583 20.7125 9.2875C20.9042 9.47917 21 9.71667 21 10V12H23C23.2833 12 23.5208 12.0958 23.7125 12.2875C23.9042 12.4792 24 12.7167 24 13C24 13.2833 23.9042 13.5208 23.7125 13.7125C23.5208 13.9042 23.2833 14 23 14H21V16C21 16.2833 20.9042 16.5208 20.7125 16.7125C20.5208 16.9042 20.2833 17 20 17C19.7167 17 19.4792 16.9042 19.2875 16.7125C19.0958 16.5208 19 16.2833 19 16V14ZM15 30C14.45 30 13.9792 29.8042 13.5875 29.4125C13.1958 29.0208 13 28.55 13 28C13 27.45 13.1958 26.9792 13.5875 26.5875C13.9792 26.1958 14.45 26 15 26C15.55 26 16.0208 26.1958 16.4125 26.5875C16.8042 26.9792 17 27.45 17 28C17 28.55 16.8042 29.0208 16.4125 29.4125C16.0208 29.8042 15.55 30 15 30ZM25 30C24.45 30 23.9792 29.8042 23.5875 29.4125C23.1958 29.0208 23 28.55 23 28C23 27.45 23.1958 26.9792 23.5875 26.5875C23.9792 26.1958 24.45 26 25 26C25.55 26 26.0208 26.1958 26.4125 26.5875C26.8042 26.9792 27 27.45 27 28C27 28.55 26.8042 29.0208 26.4125 29.4125C26.0208 29.8042 25.55 30 25 30ZM11 12H10C9.71667 12 9.47917 11.9042 9.2875 11.7125C9.09583 11.5208 9 11.2833 9 11C9 10.7167 9.09583 10.4792 9.2875 10.2875C9.47917 10.0958 9.71667 10 10 10H11.65C11.8333 10 12.0083 10.05 12.175 10.15C12.3417 10.25 12.4667 10.3917 12.55 10.575L16.525 19H23.525L27.15 12.5C27.2333 12.3333 27.35 12.2083 27.5 12.125C27.65 12.0417 27.8167 12 28 12C28.3833 12 28.6708 12.1625 28.8625 12.4875C29.0542 12.8125 29.0583 13.1417 28.875 13.475L25.3 19.95C25.1167 20.2833 24.8708 20.5417 24.5625 20.725C24.2542 20.9083 23.9167 21 23.55 21H16.1L15 23H26C26.2833 23 26.5208 23.0958 26.7125 23.2875C26.9042 23.4792 27 23.7167 27 24C27 24.2833 26.9042 24.5208 26.7125 24.7125C26.5208 24.9042 26.2833 25 26 25H15C14.25 25 13.6792 24.675 13.2875 24.025C12.8958 23.375 12.8833 22.7167 13.25 22.05L14.6 19.6L11 12Z" fill="#525252"/>
</svg>
