<svg width="48" height="48" viewBox="0 0 48 48" fill="none" xmlns="http://www.w3.org/2000/svg">
<g clip-path="url(#clip0_5065_218)">
<path fill-rule="evenodd" clip-rule="evenodd" d="M39.0062 29.1254C39.8797 29.2765 40.6732 29.4133 41.5495 29.5644C42.1376 28.1734 42.5172 26.694 42.7313 25.1691C44.0272 15.9452 38.5324 7.06618 30.5569 3.45757C23.1353 0.0998024 13.7012 1.87275 7.74392 7.86429C-2.49511 18.1628 0.955956 35.65 14.3378 41.2368C18.1685 42.8358 22.1419 43.2292 26.2267 42.471C26.9032 42.3456 27.3599 42.5736 27.4712 43.0867C27.5826 43.6083 27.2829 44.0074 26.5921 44.1442C21.865 45.0877 17.2979 44.5489 12.9676 42.4539C6.99604 39.5664 2.76855 35.0144 0.975938 28.6067C-1.37901 20.1894 0.516367 12.6045 6.78766 6.48755C13.2074 0.22522 21.0058 -1.47647 29.5293 1.26562C35.7121 3.25234 40.0167 7.58495 42.6714 13.4682C45.092 18.8326 45.3346 24.3368 43.268 29.8893C43.1115 30.3134 43.3137 30.4333 43.5476 30.5718L43.5477 30.5719C43.5826 30.5925 43.6181 30.6136 43.6533 30.6361C49.2281 34.2191 49.4879 42.2658 44.1585 46.1993C38.4924 50.3809 30.2258 46.8692 29.301 39.8914C29.2748 39.6921 29.2414 39.4956 29.205 39.2808L29.205 39.2808C29.1898 39.1915 29.1742 39.0991 29.1582 39.0021C28.9182 39.0798 28.6825 39.1614 28.4486 39.2424L28.4484 39.2425L28.4483 39.2425C27.962 39.4109 27.4841 39.5763 26.9945 39.6976C20.3636 41.3508 14.5661 39.6605 9.71922 35.0058C4.60969 30.1003 3.13678 24.009 5.09781 17.2934C7.04457 10.6292 11.6289 6.41059 18.4111 4.82292C23.7547 3.57159 28.693 4.7374 33.1345 7.96406C33.6169 8.31466 33.8767 8.72511 33.5228 9.29234C33.2259 9.76836 32.695 9.78546 32.1012 9.3294C23.8775 3.01861 12.234 6.40774 7.83241 14.9048C4.1958 21.9282 5.87994 31.3174 13.9838 36.1745C18.4882 38.8738 23.2552 39.3783 28.222 37.4913C28.927 37.2234 29.3352 36.8728 29.5693 36.0633C30.594 32.5402 32.9633 30.3397 36.5228 29.3962C36.8054 29.3221 37.1337 29.0228 37.2421 28.7492C39.5172 23.151 38.9434 17.8435 35.538 12.8496C34.9386 11.9689 34.8729 11.5584 35.3553 11.185C35.8549 10.7974 36.3401 10.9826 36.9453 11.8634C40.5476 17.1167 41.247 22.7491 39.1347 28.7435C39.1054 28.8228 39.0777 28.9036 39.0425 29.006L39.0005 29.1283L39.0062 29.1254ZM38.5809 46.2677C42.7741 46.2791 46.2794 42.8615 46.3137 38.7256C46.3508 34.3103 42.9882 30.9069 38.5952 30.9155C34.2192 30.924 30.8995 34.2704 30.8995 38.6714C30.8995 42.8016 34.3905 46.2563 38.578 46.2677H38.5809ZM15.445 14.3604C15.6302 15.3675 15.804 16.3122 15.992 17.3305C15.8588 17.3305 15.7245 17.3293 15.5897 17.328C15.2608 17.3251 14.9283 17.3221 14.5972 17.3362C14.092 17.359 13.798 17.664 13.7837 18.1543C13.7694 18.6474 14.0634 18.9581 14.5516 19.0236C14.7615 19.0536 14.9769 19.0458 15.1804 19.0384C15.2675 19.0353 15.3523 19.0322 15.4336 19.0322C15.602 19.9508 15.7593 20.8054 15.9232 21.6951L15.9233 21.696L15.9902 22.0593C15.8439 22.0593 15.6995 22.0571 15.5565 22.0549C15.2392 22.0501 14.929 22.0454 14.6201 22.065C14.0863 22.0992 13.7751 22.427 13.798 22.9486C13.8208 23.4247 14.1177 23.7325 14.6286 23.7581C14.8108 23.7656 14.993 23.7633 15.1933 23.7609H15.1933H15.1935C15.3007 23.7595 15.4131 23.7581 15.5335 23.7581C15.5364 25.5482 16.0188 27.1102 17.1377 28.4328C18.2681 29.7696 19.7353 30.5364 21.4794 30.8214C21.4794 31.0761 21.4805 31.3252 21.4816 31.5705V31.5706C21.484 32.1105 21.4863 32.6318 21.4765 33.1531C21.4651 33.7516 21.6592 34.1992 22.31 34.2647C22.8552 34.3217 23.1892 33.8771 23.1949 33.1388C23.1987 32.6224 23.1975 32.1059 23.1962 31.5878V31.5867C23.1956 31.3274 23.1949 31.0676 23.1949 30.8072C25.0075 30.5364 26.4319 29.7411 27.548 28.4214C28.667 27.1017 29.1351 25.5339 29.1351 23.7981C29.2311 23.7934 29.3183 23.7878 29.3995 23.7827L29.3997 23.7826H29.3998C29.5672 23.7719 29.7094 23.7629 29.8516 23.7667C30.4425 23.7867 30.825 23.5273 30.882 22.9287C30.9334 22.4042 30.5053 22.0679 29.8202 22.0508C29.5589 22.045 29.2963 22.047 29.0438 22.0489H29.0436H29.0433C28.9207 22.0498 28.8006 22.0508 28.6841 22.0508C28.7841 21.4979 28.8794 20.9754 28.9737 20.4585C29.0597 19.9867 29.145 19.5194 29.2322 19.0379C29.3131 19.0379 29.3955 19.0397 29.4789 19.0416H29.4789H29.479C29.6486 19.0454 29.8221 19.0494 29.9943 19.0379C30.5538 19.0037 30.9049 18.6987 30.8849 18.1372C30.8678 17.6127 30.5224 17.3333 29.9857 17.3305H28.6727C28.8639 16.2987 29.0409 15.3495 29.235 14.3148C29.2967 14.3148 29.3633 14.3163 29.4332 14.3179H29.4332C29.596 14.3217 29.7766 14.3259 29.9543 14.3119C30.4995 14.272 30.882 13.987 30.8735 13.4254C30.8621 12.8611 30.491 12.596 29.9201 12.6017C29.0409 12.6131 28.1589 12.6216 27.2797 12.6017C26.0865 12.576 24.9647 12.8183 23.9143 13.3827C23.7674 13.4608 23.623 13.5414 23.4574 13.634C23.3752 13.6799 23.2877 13.7288 23.1921 13.7817C23.1921 13.4947 23.1928 13.2222 23.1934 12.9592C23.1947 12.4595 23.1958 11.9939 23.1921 11.5271C23.1864 10.7717 22.8809 10.3641 22.3357 10.3641C21.7877 10.3641 21.4822 10.7717 21.4765 11.5242C21.4746 12.0009 21.4753 12.4789 21.4759 12.9656C21.4762 13.2123 21.4765 13.4612 21.4765 13.7133C21.2898 13.6283 21.1158 13.5446 20.9495 13.4645C20.625 13.3084 20.3293 13.1661 20.0236 13.0549C18.429 12.4752 16.7758 12.552 15.1321 12.6283C14.9251 12.6379 14.7182 12.6476 14.5116 12.6558C14.2575 12.6644 13.8265 13.1803 13.8351 13.4483C13.8436 13.739 14.229 14.0953 14.5373 14.272C14.7151 14.3738 14.9544 14.3666 15.1759 14.36C15.271 14.3571 15.3628 14.3544 15.445 14.3604ZM22.5926 29.0969C22.7782 26.3378 20.566 23.8779 17.8542 23.7753C17.5059 23.761 17.2804 23.7781 17.2747 24.2427C17.2405 26.9534 19.878 29.3991 22.5926 29.0941V29.0969ZM17.3118 19.0578C17.3118 19.1745 17.3059 19.2802 17.3004 19.3775C17.2897 19.5654 17.2809 19.7218 17.3204 19.8645C17.3626 20.0163 17.4013 20.1708 17.4401 20.3256L17.4401 20.3256C17.5747 20.8629 17.7104 21.4043 17.9941 21.8512C18.1239 22.0556 18.4708 22.1218 18.8178 22.188L18.8178 22.188C18.9742 22.2178 19.1306 22.2477 19.2672 22.2902C19.3118 22.3041 19.357 22.3159 19.4021 22.3277C19.4953 22.352 19.5878 22.3762 19.6725 22.4185C20.389 22.784 21.1019 23.153 21.84 23.535L22.4642 23.8579C22.8438 22.7491 22.2044 21.8712 21.6107 21.0617C20.5831 19.6564 19.1387 19.0008 17.3118 19.055V19.0578ZM17.1377 14.3575C17.1878 14.5609 17.2359 14.7574 17.2827 14.9486C17.4306 15.5531 17.5655 16.1042 17.7086 16.6521C17.8428 17.1737 18.191 17.379 18.7334 17.4502C19.9351 17.6098 20.9884 18.1429 21.9275 18.9039C22.0297 18.9868 22.1413 19.0585 22.2577 19.1334C22.2975 19.159 22.3378 19.1849 22.3785 19.2118C22.7468 18.3823 22.4899 17.3818 21.5736 16.2473C20.4974 14.9191 19.1073 14.2378 17.1406 14.3547L17.1377 14.3575ZM24.5023 28.5981C26.2492 28.028 27.6879 25.6081 27.2626 23.7753C25.7554 23.7638 24.4766 24.2712 23.5203 25.2546L23.8616 26.4161L23.8653 26.4288C24.0819 27.166 24.2896 27.8728 24.5023 28.5981ZM24.2682 17.855C24.4387 17.8157 24.6086 17.777 24.7778 17.7386L24.778 17.7385C25.3084 17.6179 25.8326 17.4987 26.352 17.3647C26.4947 17.3276 26.6631 17.2193 26.7345 17.0939C27.2083 16.2559 27.4567 15.3637 27.3368 14.3518C25.8896 14.2435 24.6907 14.711 23.6659 15.6488C23.5603 15.7457 23.4889 15.9937 23.5346 16.1219C23.7017 16.569 23.8945 17.0048 24.0829 17.4306L24.083 17.4309C24.1456 17.5724 24.2077 17.7128 24.2682 17.8521V17.855ZM23.6574 20.3975C24.6791 19.457 25.8777 18.9953 27.5757 19.0834C27.4977 19.3462 27.4238 19.5998 27.3519 19.8463L27.3519 19.8465C27.1559 20.5186 26.9753 21.1382 26.7687 21.7486C26.7145 21.9082 26.4804 22.0622 26.3006 22.1106C25.8088 22.2461 25.3123 22.3564 24.8029 22.4696L24.8028 22.4696C24.6263 22.5088 24.4482 22.5484 24.2682 22.5895C24.2047 22.4423 24.1394 22.2938 24.0735 22.1442L24.0734 22.1438C23.8907 21.7287 23.7039 21.3043 23.5403 20.8707C23.4918 20.7424 23.5546 20.4916 23.6574 20.3975ZM37.4785 38.5602C37.2661 38.3585 37.0614 38.1662 36.8628 37.9796C36.4131 37.5571 35.9949 37.1642 35.5889 36.7588C35.0923 36.2629 35.0523 35.7555 35.4691 35.3963C35.9458 34.9887 36.3882 35.1313 36.7878 35.5417C37.3673 36.1374 37.9439 36.7303 38.6803 37.4914C38.8047 37.3526 38.9266 37.2164 39.0466 37.0822C39.511 36.5631 39.9479 36.0748 40.3902 35.5902C40.787 35.1541 41.2437 34.9574 41.7575 35.3935C42.1885 35.7612 42.1257 36.2686 41.5891 36.8073C41.202 37.1977 40.8069 37.5815 40.3762 37.9997C40.1781 38.1922 39.9724 38.3919 39.7565 38.603C39.9302 38.7667 40.1003 38.9267 40.2676 39.084C40.7299 39.5189 41.171 39.9338 41.609 40.3503C42.0401 40.7579 42.2256 41.214 41.7803 41.7157C41.4178 42.1261 40.9183 42.0748 40.4159 41.5703C39.9927 41.1457 39.5831 40.7059 39.1421 40.2326C38.9763 40.0546 38.806 39.8718 38.629 39.6833C38.4132 39.9082 38.2092 40.1232 38.0123 40.3307C37.6128 40.7517 37.2426 41.1419 36.862 41.5219C36.3168 42.0663 35.8344 42.1233 35.4405 41.7185C35.0494 41.3166 35.1122 40.852 35.666 40.3019C36.0577 39.9127 36.4565 39.5334 36.8982 39.1134C37.0833 38.9374 37.2758 38.7542 37.4785 38.5602Z" fill="black"/>
</g>
<defs>
<clipPath id="clip0_5065_218">
<rect width="48" height="48" fill="white"/>
</clipPath>
</defs>
</svg>
