<svg width="60" height="57" viewBox="0 0 60 57" fill="none" xmlns="http://www.w3.org/2000/svg">
<g clip-path="url(#clip0_5213_184)">
<path d="M29.844 0C13.3622 0 0 13.4328 0 30.0041C0 41.0624 5.95027 50.7241 14.8082 55.9277C14.8451 55.95 14.8819 55.9724 14.9199 55.9936C14.9253 55.9963 14.9307 56.0002 14.9367 56.0029C18.5028 58.062 23.0559 56.8295 25.1137 53.2469C27.1749 49.6583 25.9516 45.0705 22.3833 42.9983C17.9234 40.3998 14.9182 35.5488 14.9182 30.0041C14.9182 25.8614 18.2589 22.5028 22.3795 22.5028C24.2412 22.5028 25.944 23.1877 27.2524 24.3222C27.254 24.3233 27.2561 24.3249 27.2572 24.3265C27.3206 24.381 27.3835 24.4377 27.4453 24.4949C28.0897 25.0381 28.9184 25.3672 29.8256 25.3716C30.7448 25.3765 31.5881 25.0474 32.2417 24.4976C32.3062 24.4366 32.3718 24.3772 32.439 24.32C33.7473 23.1877 35.4491 22.5028 37.3102 22.5028C41.4319 22.5028 44.7726 25.8614 44.7726 30.0041C44.7726 35.5488 41.7668 40.3998 37.3075 42.9983C33.7381 45.0699 32.5154 49.6583 34.5765 53.2469C36.6159 56.7984 41.1072 58.0396 44.6598 56.0568C44.6967 56.0367 44.7336 56.0154 44.7704 55.9936C44.8083 55.9724 44.8452 55.95 44.882 55.9277C53.7405 50.7247 59.6908 41.0624 59.6908 30.0041C59.6897 13.4328 46.3275 0 29.844 0ZM16.3653 21.5068C15.4521 22.906 13.5828 23.2962 12.191 22.3775C11.9678 22.2304 11.1017 21.6692 10.8692 21.5155C9.47741 20.5974 9.08936 18.7181 10.0031 17.3189C10.9163 15.9196 12.7856 15.5295 14.1774 16.4482C14.4006 16.5953 15.2667 17.1565 15.4992 17.3102C16.891 18.2283 17.279 20.1076 16.3653 21.5068ZM24.1425 18.2119C22.108 18.6582 20.0989 17.3614 19.655 15.3165C19.584 14.9884 19.299 13.7249 19.2247 13.3832C18.7808 11.3378 20.0702 9.31792 22.1047 8.87167C24.1393 8.42542 26.1484 9.72222 26.5922 11.7671C26.6632 12.0952 26.9483 13.3587 27.0226 13.7004C27.4664 15.7458 26.1771 17.7657 24.1425 18.2119ZM40.4639 13.3827C40.3897 13.7243 40.1046 14.9879 40.0336 15.3159C39.5897 17.3614 37.5806 18.6576 35.5461 18.2114C33.5115 17.7651 32.2222 15.7453 32.6661 13.6998C32.7403 13.3582 33.0254 12.0946 33.0964 11.7666C33.5403 9.72113 35.5493 8.42487 37.5839 8.87112C39.6185 9.31738 40.9078 11.3372 40.4639 13.3827ZM48.8195 21.5155C48.5869 21.6692 47.7209 22.2298 47.4976 22.3775C46.1058 23.2956 44.2371 22.906 43.3233 21.5068C42.4101 20.1076 42.7976 18.2288 44.1894 17.3102C44.4219 17.157 45.288 16.5958 45.5113 16.4482C46.903 15.53 48.7718 15.9196 49.6855 17.3189C50.5987 18.7181 50.2112 20.5974 48.8195 21.5155Z" fill="#525252"/>
<path d="M59.6897 30.0047C59.6897 30.2335 59.687 30.4618 59.6816 30.6896C59.3271 14.4294 46.1036 1.35838 29.8446 1.35838C13.5855 1.35838 0.362577 14.4294 0.00812953 30.6896C0.00270984 30.4618 0 30.233 0 30.0047C0 13.4334 13.3622 0 29.844 0C46.3258 0 59.6892 13.4328 59.6892 30.0041L59.6897 30.0047Z" fill="#262626"/>
<path d="M40.4641 14.7411C40.3893 15.0827 40.1048 16.3463 40.0332 16.6743C39.5893 18.7203 37.5803 20.0166 35.5457 19.5703C33.5551 19.1333 32.2766 17.1892 32.6397 15.1895C32.9047 16.6487 34.0147 17.8763 35.5457 18.212C37.5797 18.6582 39.5893 17.3614 40.0332 15.3159C40.1053 14.9874 40.3898 13.7244 40.4641 13.3827C40.4733 13.3391 40.4825 13.2955 40.4901 13.252C40.5774 13.7304 40.5741 14.2349 40.4641 14.7406V14.7411Z" fill="#262626"/>
<path d="M24.1426 19.5704C22.1086 20.0166 20.099 18.7204 19.6557 16.6744C19.5847 16.3469 19.299 15.0828 19.2259 14.7412C19.1164 14.2355 19.1126 13.731 19.1999 13.2515C19.2075 13.2951 19.2167 13.3392 19.2259 13.3828C19.2996 13.7244 19.5852 14.9869 19.6557 15.316C20.0995 17.3609 22.1086 18.6583 24.1426 18.212C25.6742 17.8758 26.7836 16.6493 27.0487 15.1901C27.4107 17.1898 26.1344 19.1329 24.1426 19.5698V19.5704Z" fill="#262626"/>
<path d="M48.8211 22.8745C48.588 23.0282 47.7225 23.5894 47.4987 23.7365C46.1074 24.6547 44.2382 24.2651 43.3244 22.8653C42.8556 22.1471 42.7293 21.3015 42.9071 20.5256C42.9846 20.8656 43.1228 21.198 43.3244 21.5069C44.2376 22.9056 46.1074 23.2957 47.4987 22.3771C47.7225 22.23 48.588 21.6687 48.8211 21.5151C49.498 21.0677 49.937 20.3948 50.1039 19.6587C50.3803 20.8596 49.905 22.1586 48.8211 22.8745Z" fill="#262626"/>
<path d="M16.3658 22.8652C15.4526 24.265 13.5839 24.6546 12.1916 23.7365C11.9689 23.5894 11.1022 23.0281 10.8703 22.8745C9.7858 22.1591 9.3105 20.8601 9.5869 19.6592C9.75437 20.3953 10.1939 21.0682 10.8703 21.5156C11.1022 21.6692 11.9689 22.2304 12.1916 22.3776C13.5839 23.2957 15.4521 22.9061 16.3658 21.5074C16.5675 21.1979 16.7057 20.8661 16.7832 20.5261C16.9609 21.302 16.8346 22.1471 16.3658 22.8658V22.8652Z" fill="#262626"/>
<path d="M44.7716 31.3624C44.7716 36.9071 41.7658 41.7581 37.3065 44.3566C35.1224 45.624 33.8173 47.834 33.6049 50.1808C33.3491 47.3572 34.7045 44.5097 37.3065 42.9988C41.5507 40.5261 44.4773 36.014 44.7504 30.8044C44.7651 30.9886 44.7716 31.175 44.7716 31.3629V31.3624Z" fill="#262626"/>
<path d="M26.0841 50.1797C25.8717 47.834 24.5666 45.624 22.383 44.3566C17.9232 41.7581 14.918 36.9071 14.918 31.3625C14.918 31.1745 14.9245 30.9887 14.9391 30.804C15.2128 36.0135 18.1389 40.5256 22.383 42.9983C24.9845 44.5092 26.3389 47.3567 26.0841 50.1797Z" fill="#262626"/>
</g>
<defs>
<clipPath id="clip0_5213_184">
<rect width="59.6897" height="57" fill="white"/>
</clipPath>
</defs>
</svg>
