<svg width="60" height="57" viewBox="0 0 60 57" fill="none" xmlns="http://www.w3.org/2000/svg">
<g clip-path="url(#clip0_5242_1662)">
<path d="M29.844 0C13.3622 0 0 13.4328 0 30.0041C0 41.0624 5.95027 50.7241 14.8082 55.9277C14.8451 55.95 14.8819 55.9724 14.9199 55.9936C14.9253 55.9963 14.9307 56.0002 14.9367 56.0029C18.5028 58.062 23.0559 56.8295 25.1137 53.2469C27.1749 49.6583 25.9516 45.0705 22.3833 42.9983C17.9234 40.3998 14.9182 35.5488 14.9182 30.0041C14.9182 25.8614 18.2589 22.5028 22.3795 22.5028C24.2412 22.5028 25.944 23.1877 27.2524 24.3222C27.254 24.3233 27.2561 24.3249 27.2572 24.3265C27.3206 24.381 27.3835 24.4377 27.4453 24.4949C28.0897 25.0381 28.9184 25.3672 29.8256 25.3716C30.7448 25.3765 31.5881 25.0474 32.2417 24.4976C32.3062 24.4366 32.3718 24.3772 32.439 24.32C33.7473 23.1877 35.4491 22.5028 37.3102 22.5028C41.4319 22.5028 44.7726 25.8614 44.7726 30.0041C44.7726 35.5488 41.7668 40.3998 37.3075 42.9983C33.7381 45.0699 32.5154 49.6583 34.5765 53.2469C36.6159 56.7984 41.1072 58.0396 44.6598 56.0568C44.6967 56.0367 44.7336 56.0154 44.7704 55.9936C44.8083 55.9724 44.8452 55.95 44.882 55.9277C53.7405 50.7247 59.6908 41.0624 59.6908 30.0041C59.6897 13.4328 46.3275 0 29.844 0ZM16.3653 21.5068C15.4521 22.906 13.5828 23.2962 12.191 22.3775C11.9678 22.2304 11.1017 21.6692 10.8692 21.5155C9.47741 20.5974 9.08936 18.7181 10.0031 17.3189C10.9163 15.9196 12.7856 15.5295 14.1774 16.4482C14.4006 16.5953 15.2667 17.1565 15.4992 17.3102C16.891 18.2283 17.279 20.1076 16.3653 21.5068ZM24.1425 18.2119C22.108 18.6582 20.0989 17.3614 19.655 15.3165C19.584 14.9884 19.299 13.7249 19.2247 13.3832C18.7808 11.3378 20.0702 9.31792 22.1047 8.87167C24.1393 8.42542 26.1484 9.72222 26.5922 11.7671C26.6632 12.0952 26.9483 13.3587 27.0226 13.7004C27.4664 15.7458 26.1771 17.7657 24.1425 18.2119ZM40.4639 13.3827C40.3897 13.7243 40.1046 14.9879 40.0336 15.3159C39.5897 17.3614 37.5806 18.6576 35.5461 18.2114C33.5115 17.7651 32.2222 15.7453 32.6661 13.6998C32.7403 13.3582 33.0254 12.0946 33.0964 11.7666C33.5403 9.72113 35.5493 8.42487 37.5839 8.87112C39.6185 9.31738 40.9078 11.3372 40.4639 13.3827ZM48.8195 21.5155C48.5869 21.6692 47.7209 22.2298 47.4976 22.3775C46.1058 23.2956 44.2371 22.906 43.3233 21.5068C42.4101 20.1076 42.7976 18.2288 44.1894 17.3102C44.4219 17.157 45.288 16.5958 45.5113 16.4482C46.903 15.53 48.7718 15.9196 49.6855 17.3189C50.5987 18.7181 50.2112 20.5974 48.8195 21.5155Z" fill="#FAFAFA"/>
<path d="M59.6897 30.0047C59.6897 30.2335 59.687 30.4618 59.6816 30.6896C59.3271 14.4294 46.1036 1.35838 29.8446 1.35838C13.5855 1.35838 0.362577 14.4294 0.00812953 30.6896C0.00270984 30.4618 0 30.233 0 30.0047C0 13.4334 13.3622 0 29.844 0C46.3258 0 59.6892 13.4328 59.6892 30.0041L59.6897 30.0047Z" fill="#A3A3A3"/>
<path d="M40.4645 14.7411C40.3897 15.0827 40.1051 16.3463 40.0336 16.6743C39.5897 18.7203 37.5806 20.0166 35.5461 19.5703C33.5554 19.1333 32.2769 17.1892 32.6401 15.1895C32.9051 16.6487 34.015 17.8763 35.5461 18.212C37.5801 18.6582 39.5897 17.3614 40.0336 15.3159C40.1057 14.9874 40.3902 13.7244 40.4645 13.3827C40.4737 13.3391 40.4829 13.2955 40.4905 13.252C40.5777 13.7304 40.5745 14.2349 40.4645 14.7406V14.7411Z" fill="#A3A3A3"/>
<path d="M24.1431 19.5704C22.1091 20.0166 20.0994 18.7204 19.6561 16.6744C19.5851 16.3469 19.2995 15.0828 19.2263 14.7412C19.1169 14.2355 19.1131 13.731 19.2003 13.2515C19.2079 13.2951 19.2171 13.3392 19.2263 13.3828C19.3 13.7244 19.5857 14.9869 19.6561 15.316C20.1 17.3609 22.1091 18.6583 24.1431 18.212C25.6747 17.8758 26.7841 16.6493 27.0491 15.1901C27.4111 17.1898 26.1348 19.1329 24.1431 19.5698V19.5704Z" fill="#A3A3A3"/>
<path d="M48.8205 22.8745C48.5875 23.0282 47.722 23.5894 47.4981 23.7365C46.1069 24.6547 44.2376 24.2651 43.3239 22.8653C42.8551 22.1471 42.7288 21.3015 42.9066 20.5256C42.9841 20.8656 43.1223 21.198 43.3239 21.5069C44.2371 22.9056 46.1069 23.2957 47.4981 22.3771C47.722 22.23 48.5875 21.6687 48.8205 21.5151C49.4975 21.0677 49.9364 20.3948 50.1034 19.6587C50.3798 20.8596 49.9045 22.1586 48.8205 22.8745Z" fill="#A3A3A3"/>
<path d="M16.3653 22.8652C15.4521 24.265 13.5834 24.6546 12.1911 23.7365C11.9683 23.5894 11.1017 23.0281 10.8697 22.8745C9.78525 22.1591 9.30995 20.8601 9.58635 19.6592C9.75382 20.3953 10.1934 21.0682 10.8697 21.5156C11.1017 21.6692 11.9683 22.2304 12.1911 22.3776C13.5834 23.2957 15.4515 22.9061 16.3653 21.5074C16.5669 21.1979 16.7051 20.8661 16.7826 20.5261C16.9604 21.302 16.8341 22.1471 16.3653 22.8658V22.8652Z" fill="#A3A3A3"/>
<path d="M44.772 31.3624C44.772 36.9071 41.7663 41.7581 37.307 44.3566C35.1228 45.624 33.8178 47.834 33.6053 50.1808C33.3495 47.3572 34.705 44.5097 37.307 42.9988C41.5511 40.5261 44.4778 36.014 44.7509 30.8044C44.7655 30.9886 44.772 31.175 44.772 31.3629V31.3624Z" fill="#A3A3A3"/>
<path d="M26.0833 50.1797C25.8709 47.834 24.5658 45.624 22.3822 44.3566C17.9224 41.7581 14.9171 36.9071 14.9171 31.3625C14.9171 31.1745 14.9236 30.9887 14.9383 30.804C15.212 36.0135 18.1381 40.5256 22.3822 42.9983C24.9837 44.5092 26.338 47.3567 26.0833 50.1797Z" fill="#A3A3A3"/>
</g>
<defs>
<clipPath id="clip0_5242_1662">
<rect width="59.6897" height="57" fill="white"/>
</clipPath>
</defs>
</svg>
