<svg width="81" height="77" viewBox="0 0 81 77" fill="none" xmlns="http://www.w3.org/2000/svg">
<g opacity="0.6" clip-path="url(#clip0_1_101)">
<path d="M40.4989 0C18.4089 0 0.5 18.1416 0.5 40.522C0.5 55.4566 8.47494 68.5053 20.3469 75.5329C20.3963 75.5631 20.4457 75.5933 20.4966 75.622C20.5038 75.6256 20.5111 75.6308 20.5191 75.6345C25.2987 78.4154 31.401 76.7508 34.1591 71.9124C36.9215 67.0659 35.282 60.8698 30.4995 58.0712C24.5222 54.5618 20.4944 48.0103 20.4944 40.522C20.4944 34.9271 24.9718 30.3911 30.4945 30.3911C32.9896 30.3911 35.2719 31.3161 37.0254 32.8482C37.0275 32.8497 37.0304 32.8519 37.0319 32.8541C37.1169 32.9277 37.2011 33.0042 37.284 33.0815C38.1476 33.8152 39.2583 34.2596 40.4742 34.2655C41.7062 34.2721 42.8364 33.8277 43.7124 33.0852C43.7989 33.0027 43.8868 32.9225 43.9768 32.8453C45.7303 31.3161 48.0111 30.3911 50.5055 30.3911C56.0297 30.3911 60.5071 34.9271 60.5071 40.522C60.5071 48.0103 56.4786 54.5618 50.5019 58.0712C45.718 60.869 44.0792 67.0659 46.8417 71.9124C49.575 76.7089 55.5946 78.3852 60.356 75.7073C60.4054 75.6801 60.4548 75.6514 60.5042 75.622C60.555 75.5933 60.6044 75.5631 60.6538 75.5329C72.5265 68.506 80.5015 55.4566 80.5015 40.522C80.5 18.1416 62.5911 0 40.4989 0ZM22.4338 29.0459C21.2099 30.9357 18.7046 31.4625 16.8392 30.2219C16.54 30.0232 15.3792 29.2652 15.0676 29.0577C13.2022 27.8177 12.6821 25.2797 13.9068 23.3899C15.1308 21.5002 17.6361 20.9733 19.5014 22.214C19.8007 22.4127 20.9614 23.1707 21.2731 23.3782C23.1384 24.6181 23.6585 27.1562 22.4338 29.0459ZM32.8574 24.5961C30.1305 25.1987 27.4379 23.4473 26.8429 20.6856C26.7478 20.2426 26.3657 18.5361 26.2662 18.0747C25.6713 15.3122 27.3994 12.5843 30.1262 11.9816C32.853 11.3789 35.5457 13.1303 36.1406 15.8921C36.2358 16.3351 36.6179 18.0416 36.7174 18.503C37.3123 21.2655 35.5842 23.9934 32.8574 24.5961ZM54.7324 18.0739C54.6328 18.5353 54.2508 20.2418 54.1556 20.6848C53.5607 23.4473 50.868 25.198 48.1412 24.5953C45.4143 23.9926 43.6863 21.2647 44.2812 18.5022C44.3807 18.0408 44.7628 16.3343 44.8579 15.8913C45.4528 13.1288 48.1455 11.3782 50.8724 11.9809C53.5992 12.5835 55.3273 15.3115 54.7324 18.0739ZM65.931 29.0577C65.6194 29.2652 64.4586 30.0224 64.1593 30.2219C62.294 31.4618 59.7894 30.9357 58.5647 29.0459C57.3408 27.1562 57.8602 24.6189 59.7255 23.3782C60.0371 23.1714 61.1979 22.4134 61.4971 22.214C63.3625 20.974 65.8671 21.5002 67.0917 23.3899C68.3157 25.2797 67.7963 27.8177 65.931 29.0577Z" fill="#F43F5E"/>
<path d="M80.5 40.5227C80.5 40.8318 80.4964 41.1401 80.4891 41.4477C80.014 19.4876 62.2911 1.83455 40.4996 1.83455C18.7082 1.83455 0.985949 19.4876 0.510896 41.4477C0.503632 41.1401 0.5 40.831 0.5 40.5227C0.5 18.1424 18.4089 0 40.4989 0C62.5889 0 80.4993 18.1416 80.4993 40.522L80.5 40.5227Z" fill="#D8364A"/>
<path d="M54.7331 19.9085C54.6328 20.3699 54.2515 22.0764 54.1556 22.5194C53.5607 25.2826 50.868 27.0333 48.1412 26.4306C45.4732 25.8404 43.7596 23.2148 44.2463 20.5141C44.6015 22.4848 46.0891 24.1428 48.1412 24.5961C50.8673 25.1987 53.5607 23.4473 54.1556 20.6849C54.2522 20.2411 54.6336 18.5353 54.7331 18.0739C54.7454 18.0151 54.7578 17.9562 54.7679 17.8973C54.8849 18.5434 54.8805 19.2249 54.7331 19.9078V19.9085Z" fill="#D8364A"/>
<path d="M32.8581 26.4306C30.132 27.0333 27.4386 25.2826 26.8444 22.5194C26.7492 22.0771 26.3664 20.3699 26.2684 19.9085C26.1216 19.2256 26.1166 18.5442 26.2335 17.8966C26.2437 17.9555 26.256 18.0151 26.2684 18.074C26.3672 18.5354 26.75 20.2404 26.8444 20.6849C27.4393 23.4466 30.132 25.1987 32.8581 24.5961C34.9109 24.142 36.3978 22.4856 36.753 20.5149C37.2382 23.2155 35.5276 25.8397 32.8581 26.4299V26.4306Z" fill="#D8364A"/>
<path d="M65.9324 30.893C65.6201 31.1005 64.4601 31.8584 64.1601 32.0571C62.2954 33.2971 59.7902 32.7709 58.5655 30.8805C57.9372 29.9106 57.7679 28.7685 58.0062 27.7206C58.11 28.1798 58.2953 28.6287 58.5655 29.0459C59.7894 30.9349 62.2954 31.4618 64.1601 30.2211C64.4601 30.0224 65.6201 29.2645 65.9324 29.0569C66.8397 28.4528 67.428 27.544 67.6518 26.5498C68.0222 28.1717 67.3852 29.926 65.9324 30.893Z" fill="#D8364A"/>
<path d="M22.4338 30.8805C21.2099 32.7709 18.7053 33.2971 16.8392 32.0571C16.5407 31.8584 15.3792 31.1005 15.0683 30.893C13.6148 29.9268 12.9778 28.1724 13.3482 26.5505C13.5727 27.5447 14.1618 28.4535 15.0683 29.0577C15.3792 29.2652 16.5407 30.0232 16.8392 30.2218C18.7053 31.4618 21.2091 30.9356 22.4338 29.0466C22.704 28.6287 22.8893 28.1805 22.9931 27.7213C23.2314 28.7692 23.0621 29.9106 22.4338 30.8812V30.8805Z" fill="#D8364A"/>
<path d="M60.5064 42.3566C60.5064 49.8449 56.4779 56.3964 50.5012 59.9058C47.5739 61.6175 45.8247 64.6022 45.54 67.7717C45.1972 63.9583 47.0138 60.1126 50.5012 58.072C56.1895 54.7326 60.1119 48.6388 60.478 41.603C60.4976 41.8518 60.5064 42.1034 60.5064 42.3573V42.3566Z" fill="#D8364A"/>
<path d="M35.4586 67.7702C35.1738 64.6022 33.4247 61.6175 30.4981 59.9058C24.5207 56.3964 20.4929 49.8449 20.4929 42.3566C20.4929 42.1027 20.5016 41.8518 20.5212 41.6023C20.8881 48.638 24.8098 54.7319 30.4981 58.0713C33.9847 60.1119 35.8 63.9576 35.4586 67.7702Z" fill="#D8364A"/>
</g>
<defs>
<clipPath id="clip0_1_101">
<rect width="80" height="76.9811" fill="white" transform="translate(0.5)"/>
</clipPath>
</defs>
</svg>
