<svg width="770" height="770" viewBox="0 0 770 770" fill="none" xmlns="http://www.w3.org/2000/svg">
<path d="M770 144.375V192.5H312.812V553.438H460.947C471.663 512.08 508.884 481.25 553.438 481.25C597.991 481.25 635.212 512.08 645.928 553.438H673.75V433.125H721.875V601.562H645.928C635.212 642.92 597.991 673.75 553.438 673.75C508.884 673.75 471.663 642.92 460.947 601.562H260.928C250.212 642.92 212.991 673.75 168.438 673.75C123.884 673.75 86.6626 642.92 75.9473 601.562H0V405.303L1.50391 401.543L49.6289 257.168L54.8926 240.625H264.688V144.375H770ZM745.938 240.625V288.75H529.375V240.625H745.938ZM264.688 288.75H89.4824L48.125 412.07V553.438H75.9473C86.6626 512.08 123.884 481.25 168.438 481.25C212.991 481.25 250.212 512.08 260.928 553.438H264.688V288.75ZM721.875 336.875V385H577.5V336.875H721.875ZM553.438 529.375C526.555 529.375 505.312 550.618 505.312 577.5C505.312 604.382 526.555 625.625 553.438 625.625C580.32 625.625 601.562 604.382 601.562 577.5C601.562 550.618 580.32 529.375 553.438 529.375ZM168.438 529.375C141.555 529.375 120.312 550.618 120.312 577.5C120.312 604.382 141.555 625.625 168.438 625.625C195.32 625.625 216.562 604.382 216.562 577.5C216.562 550.618 195.32 529.375 168.438 529.375Z" fill="black"/>
</svg>
