<svg width="24" height="24" viewBox="0 0 24 24" fill="none" xmlns="http://www.w3.org/2000/svg">
<path d="M11.7624 9.15625C12.6637 9.09129 13.7265 9.29249 14.7934 9.80052C15.167 9.97618 15.3145 10.4022 15.1184 10.7513C14.927 11.0919 14.4842 11.2368 14.1074 11.0523C13.2747 10.6548 12.4987 10.5117 11.8734 10.5564C11.2644 10.6019 10.8812 10.819 10.7273 11.0847C10.3853 11.6702 10.4317 12.0475 10.6405 12.3108C10.9275 12.6736 11.5714 12.999 12.5827 13.2658L12.5842 13.2662C13.1554 13.4198 13.6499 13.6155 14.0639 13.8506C14.7479 14.2385 15.2231 14.7371 15.4802 15.2929C15.743 15.8653 15.7754 16.4693 15.5992 17.0563C15.5207 17.3198 15.3972 17.5803 15.231 17.8318L15.2253 17.84C15.2018 17.873 15.1858 17.8983 15.17 17.9233L15.1569 17.9438L15.1478 17.9571C14.5393 18.7966 13.6017 19.2062 12.4964 19.2121L12.4947 19.2121C11.4693 19.2121 10.3033 18.8604 9.10129 18.1745C8.94895 18.0944 8.78976 18.0026 8.6242 17.8935C8.28397 17.6737 8.19428 17.2405 8.43016 16.9183C8.66443 16.5983 9.12777 16.5138 9.47229 16.7348C9.59747 16.8147 9.72707 16.8939 9.86729 16.9726L9.86886 16.9735C10.8724 17.545 11.7668 17.8103 12.483 17.8103C13.1115 17.8103 13.5872 17.5942 13.8909 17.1794C13.9045 17.1581 13.9176 17.1404 13.9266 17.1285L13.9424 17.1048C14.0313 16.9705 14.0973 16.8244 14.1436 16.6802C14.2301 16.4001 14.2142 16.1177 14.0979 15.8641C13.9691 15.5925 13.7124 15.3102 13.2812 15.0659L13.28 15.0653C12.9912 14.8999 12.6257 14.7506 12.175 14.636L12.1723 14.6353C10.9433 14.3112 9.97363 13.8386 9.43309 13.1595C9.13466 12.7837 8.9684 12.3602 8.96161 11.8908C8.95486 11.4252 9.10569 10.9332 9.4045 10.4171C9.84167 9.66862 10.7182 9.23285 11.7624 9.15625Z" fill="#262626"/>
<path fill-rule="evenodd" clip-rule="evenodd" d="M8.54939 3.2215C7.96597 4.1716 7.55483 5.37277 7.39288 6.70221H3.25425C2.58268 6.70221 1.95412 7.2246 2.00264 7.8996L2.00274 7.90097L2.89339 19.4587C2.94414 20.1353 3.196 20.7713 3.6696 21.2414C4.14784 21.7161 4.83074 22 5.69186 22H18.3134C19.0842 22 19.7598 21.7726 20.2587 21.3259C20.757 20.8796 21.0519 20.239 21.1118 19.4589L21.9965 7.89617C22.053 7.21411 21.4101 6.70221 20.745 6.70221H16.6123C16.4502 5.37093 16.0383 4.16332 15.4532 3.21724L15.4519 3.21516L15.449 3.21053C14.6226 1.88695 13.4216 1 12.0026 1C10.5829 1 9.37409 1.88275 8.55233 3.21673L8.54939 3.2215ZM14.7344 5.91367C14.7958 6.16721 14.8464 6.43054 14.8851 6.70221H9.10991C9.14962 6.43092 9.20071 6.16753 9.26235 5.91381C9.43871 5.1878 9.70088 4.54416 10.0263 4.02214L10.0305 4.01544C10.6066 3.08743 11.3157 2.5993 12.0026 2.5993C12.6912 2.5993 13.4018 3.08997 13.9661 4.01494L13.967 4.01634L13.9713 4.02325C14.296 4.5494 14.559 5.19019 14.7344 5.91367ZM4.70704 19.3387L3.86447 8.40491H20.1348L19.2983 19.3368C19.264 19.7826 19.1127 19.9962 19.0021 20.0952C18.8945 20.1916 18.6948 20.2973 18.3134 20.2973H5.69186C5.28672 20.2973 5.0974 20.1775 4.99212 20.073C4.86396 19.9457 4.73477 19.7088 4.70704 19.3387Z" fill="#262626"/>
</svg>
